<?xml version="1.0" encoding="utf-8"?>
<!-- Generator: Adobe Illustrator 24.0.2, SVG Export Plug-In . SVG Version: 6.00 Build 0)  -->
<svg version="1.1" id="Layer_1" xmlns="http://www.w3.org/2000/svg" xmlns:xlink="http://www.w3.org/1999/xlink" x="0px" y="0px"
	 viewBox="0 0 841.9 595.3" style="enable-background:new 0 0 841.9 595.3;" xml:space="preserve">
<style type="text/css">
	.st0{clip-path:url(#SVGID_2_);}
	.st1{fill:#4E52A3;}
	.st2{fill:none;stroke:#FCCC95;stroke-miterlimit:10;}
	.st3{fill:#FFFFFF;}
	.st4{fill:#2A2825;}
	.st5{fill:#E69E56;}
	.st6{fill:#CE8845;}
	.st7{fill:#BAB7DC;}
	.st8{fill:#CDCAE5;}
	.st9{fill:none;}
	.st10{fill:#010101;}
	.st11{fill:#FCC090;}
	.st12{fill:#FAAB73;}
	.st13{fill:#6367AF;}
	.st14{fill:#F5B64A;}
	.st15{fill:#E5A138;}
	.st16{clip-path:url(#SVGID_4_);fill:#F5B64A;}
	.st17{clip-path:url(#SVGID_4_);fill:none;stroke:#FEC66C;stroke-width:2;stroke-miterlimit:10;}
	.st18{fill:#ECEBF6;}
	.st19{opacity:0.48;}
	.st20{fill:#E0DDEF;}
	.st21{clip-path:url(#SVGID_6_);fill:#FFF1D1;}
	.st22{clip-path:url(#SVGID_6_);fill:#FFE6B9;}
	.st23{clip-path:url(#SVGID_6_);}
	.st24{clip-path:url(#SVGID_6_);fill:#2A2825;}
	.st25{fill:#BD89BD;}
	.st26{fill:#ADAAD4;}
</style>
<g>
	<defs>
		<rect id="SVGID_1_" x="100.6" y="62.9" width="639.8" height="448.8"/>
	</defs>
	<clipPath id="SVGID_2_">
		<use xlink:href="#SVGID_1_"  style="overflow:visible;"/>
	</clipPath>
	<g class="st0">
		<path class="st1" d="M597.3,388.1h-12.7H584h-12.7l-32,12.7c-8.1,3.2-12.9,11.5-11.8,20.1l14.1,105.8l42.4,3v0l0.3,0l0.3,0v0
			l42.4-3l14.1-105.8c1.1-8.6-3.7-16.9-11.8-20.1L597.3,388.1z"/>
		<path class="st2" d="M566.1,410.5c0,0,14.9,15,36.6-0.5"/>
		<path class="st3" d="M566.8,388.2l-13.8,22.4c-1.9,3.1,1.1,6.9,4.6,5.7l26.4-9.2L566.8,388.2z"/>
		<path class="st3" d="M601.7,388.2l13.8,22.4c1.9,3.1-1.1,6.9-4.6,5.7l-26.4-9.2L601.7,388.2z"/>
		<g>
			<path class="st4" d="M572.6,388.1c0,0-65.9,0-66,0c-1,0-3.1-2.3-3.8-2.8c-2.7-2.3-5.2-4.9-7.2-7.8c-3.7-5.5-4.1-13.1-1-19
				c1.6-3,4.1-5.5,7.1-6.9c3.7-1.7,7.4-2,10-5.7c1.1-1.6,4.3-10,2-11.4c0,0,71.5,44,71.5,44L572.6,388.1z"/>
			<path class="st4" d="M596.6,389.1h77.8c0,0,3.9-52.4-27.4-56.4L591.5,369L596.6,389.1z"/>
			<path class="st5" d="M584.4,410.5L584.4,410.5c-9.8,0-17.7-7.9-17.7-17.7v-31h35.4v31C602.1,402.5,594.2,410.5,584.4,410.5z"/>
			<path class="st6" d="M584.4,397.1L584.4,397.1c-9.8,0-17.7-7.9-17.7-17.7v-7.2c0-2.1,1.7-3.7,3.7-3.7h27.9c2.1,0,3.7,1.7,3.7,3.7
				v7.2C602.1,389.2,594.2,397.1,584.4,397.1z"/>
			<circle class="st6" cx="520.3" cy="329" r="17"/>
			<circle class="st6" cx="649.4" cy="329" r="17"/>
			<path class="st5" d="M584.5,255.7c5.5,0,11.1,0.8,16.4,2.3c28.5,8.2,48.3,36.3,48.3,68.4v4.3c0,14.3-7.6,27.5-19.3,33.6
				l-10.1,5.3c-11,5.8-23.2,8.8-35.4,8.8c-12.2,0-24.4-3-35.4-8.8l-10.1-5.3c-11.7-6.1-19.3-19.3-19.3-33.6v-4.3
				c0-32.1,19.9-60.2,48.3-68.4C573.5,256.5,579,255.7,584.5,255.7"/>
			<polygon class="st6" points="583.2,317.1 576,329.6 590.4,329.6 			"/>
			<circle class="st6" cx="551.5" cy="331.9" r="13"/>
			<circle class="st6" cx="616" cy="331.9" r="13"/>
			<g>
				<polygon class="st7" points="535.8,329.6 519.4,310.1 519.4,312.6 534,334.4 				"/>
				<path class="st8" d="M522.3,345.2c-0.2,0.1,0.2,0.9,0.2,1.1c0.1,0.4,0.3,0.8,0.5,1.2c0.3,0.8,0.8,1.5,1.2,2.3
					c0.5,0.8,1.2,1.4,1.8,2c3.5,3.3,6.9,6.7,10.3,10c0.2-1.7,0.5-3.4,0.7-5.1c-1.5-1.2-3.1-2.4-4.6-3.6c-1.5-1.2-3.1-2.4-4.6-3.6
					c-1.5-1.2-3.1-2.4-4.6-3.6c-0.3-0.2-0.5-0.4-0.8-0.6C522.3,345.2,522.3,345.2,522.3,345.2z"/>
				<g>
					<polygon class="st7" points="633.3,329.6 649.7,310.1 649.7,312.6 635.1,334.4 					"/>
					<path class="st8" d="M645.2,349.4c0.5-1.1,1.7-3.2,1.8-4.2c0-0.1,0-0.1,0-0.2l-15,11.7l0.7,5.1l12.4-12.1
						C645.2,349.6,645.2,349.5,645.2,349.4z"/>
				</g>
			</g>
			<circle class="st4" cx="559.1" cy="315.5" r="2.6"/>
			<circle class="st4" cx="609.6" cy="315.5" r="2.6"/>
			<path class="st4" d="M570.3,298.8c-4.1-0.2-14.6-0.2-22.5,4.2c-0.3,0.2-0.1,0.4,0.3,0.4l22.2-4.1
				C570.7,299.1,570.7,298.8,570.3,298.8z"/>
			<path class="st4" d="M595.9,298.8c4.1-0.2,14.6-0.2,22.5,4.2c0.3,0.2,0.1,0.4-0.3,0.4l-22.2-4.1
				C595.5,299.1,595.4,298.8,595.9,298.8z"/>
			<path class="st9" d="M585.1,255.7c5.5,0,11.1,0.8,16.4,2.3c28.5,8.2,48.3,36.3,48.3,68.4v4.3c0,14.3-7.6,27.5-19.3,33.6
				l-10.1,5.3c-11,5.8-23.2,8.8-35.4,8.8c-12.2,0-24.4-3-35.4-8.8l-10.1-5.3c-11.7-6.1-19.3-19.3-19.3-33.6v-4.3
				c0-32.1,19.9-60.2,48.3-68.4C574,256.5,579.6,255.7,585.1,255.7"/>
			<g>
				<path class="st7" d="M591.3,322.2c-4.5-0.6-9.1-0.6-13.6,0l-46.3,6.3v15.1l46.3-6.3c4.5-0.6,9.1-0.6,13.6,0l46.3,6.3v-15.1
					L591.3,322.2z"/>
				<path class="st8" d="M577.8,337.3l-46.3,6.3v2.8c0,12.6,8.4,23.6,20.5,27l4.8,1.3c17.5,4.8,36,4.9,53.6,0.3l6.6-1.7
					c12.2-3.3,20.8-14.4,20.8-27v-2.6l-46.3-6.3C586.8,336.7,582.3,336.7,577.8,337.3z"/>
			</g>
			<path class="st4" d="M518.9,307.4c0,0-3.1,20.1,3.6,42.2C522.6,349.6,532.9,295.1,518.9,307.4z"/>
			<path class="st4" d="M644.6,308.8c0,0-3.1,20.1,3.6,42.2C648.3,351,658.6,296.5,644.6,308.8z"/>
			<path class="st4" d="M518.2,312.1l66.3-56.4c0,0-25-18.4-53.1,3.6C504.5,280.3,518.2,312.1,518.2,312.1z"/>
			<path class="st4" d="M607.1,257.2c0,0,10.5,40.1,44.9,54.9C652,312.1,664,258.7,607.1,257.2z"/>
			<path class="st4" d="M581.7,255.7l50.6,21c0,0-4.3-22.7-22.3-27.5C592.2,244.5,581.7,255.7,581.7,255.7z"/>
			<path class="st3" d="M522.2,345.3c0,2.2-1.8,4-4,4c-2.2,0-4-1.8-4-4c0-2.2,1.8-4,4-4C520.4,341.3,522.2,343.1,522.2,345.3z"/>
			<path class="st3" d="M655.9,345.3c0,2.2-1.8,4-4,4c-2.2,0-4-1.8-4-4c0-2.2,1.8-4,4-4C654.2,341.3,655.9,343.1,655.9,345.3z"/>
		</g>
	</g>
	<g class="st0">
		<path class="st4" d="M323.1,392l-18.2-6.2c-3.2-1.1-6.5-1.6-9.8-1.6h-22.6h-8.6h-22.6c-3.3,0-6.7,0.6-9.8,1.6l-18.2,6.2
			c-13.1,4.5-21.4,17.2-20.4,31l5.4,109.5h65.6h8.6h65.6l5.4-109.5C344.6,409.2,336.2,396.5,323.1,392z"/>
		<g>
			
				<ellipse transform="matrix(0.1939 -0.981 0.981 0.1939 -177.5928 564.5306)" class="st10" cx="254.7" cy="390.3" rx="16.8" ry="19.1"/>
			<path class="st10" d="M263.8,394c1.8,9.1,11.7,14.8,22,12.8c10.4-2,17.3-11.1,15.5-20.2c-1.8-9.1-11.7-14.8-22-12.8
				C268.9,375.9,262,384.9,263.8,394z"/>
		</g>
		<path class="st11" d="M268.7,398.5L268.7,398.5c-9.8,0-17.7-7.9-17.7-17.7v-7.2c0-2.1,1.7-3.7,3.7-3.7h27.9c2.1,0,3.7,1.7,3.7,3.7
			v7.2C286.4,390.5,278.5,398.5,268.7,398.5z"/>
		<path class="st12" d="M269.6,389.1h-1.7c-9.8,0-17.7-7.9-17.7-17.7v-7.2c0-2.1,1.7-3.7,3.7-3.7h29.6c2.1,0,3.7,1.7,3.7,3.7v7.2
			C287.3,381.2,279.4,389.1,269.6,389.1z"/>
		<circle class="st12" cx="204.7" cy="329" r="17"/>
		<circle class="st12" cx="333.7" cy="329" r="17"/>
		<path class="st11" d="M268.9,255.7c5.5,0,11.1,0.8,16.4,2.3c28.5,8.2,48.3,36.3,48.3,68.4v4.3c0,14.3-7.6,27.5-19.3,33.6
			l-10.1,5.3c-11,5.8-23.2,8.8-35.4,8.8c-12.2,0-24.4-3-35.4-8.8l-10.1-5.3c-11.7-6.1-19.3-19.3-19.3-33.6v-4.3
			c0-32.1,19.9-60.2,48.3-68.4C257.8,256.5,263.3,255.7,268.9,255.7"/>
		<polygon class="st12" points="267.5,317.1 260.3,329.6 274.8,329.6 		"/>
		<circle class="st12" cx="235.8" cy="331.9" r="13"/>
		<circle class="st12" cx="300.4" cy="331.9" r="13"/>
		<g>
			<polygon class="st7" points="220.1,329.6 203.7,310.1 203.7,312.6 218.3,334.4 			"/>
			<path class="st8" d="M206.6,345.2c-0.2,0.1,0.2,0.9,0.2,1.1c0.1,0.4,0.3,0.8,0.5,1.2c0.3,0.8,0.8,1.5,1.2,2.3
				c0.5,0.8,1.2,1.4,1.8,2c3.5,3.3,6.9,6.7,10.4,10c0.2-1.7,0.5-3.4,0.7-5.1c-1.5-1.2-3.1-2.4-4.6-3.6c-1.5-1.2-3.1-2.4-4.6-3.6
				c-1.5-1.2-3.1-2.4-4.6-3.6c-0.3-0.2-0.5-0.4-0.8-0.6C206.7,345.2,206.6,345.2,206.6,345.2z"/>
			<g>
				<polygon class="st7" points="317.6,329.6 334,310.1 334,312.6 319.4,334.4 				"/>
				<path class="st8" d="M329.6,349.4c0.5-1.1,1.7-3.2,1.8-4.2c0-0.1,0-0.1,0-0.2l-15,11.7l0.7,5.1l12.4-12.1
					C329.5,349.6,329.5,349.5,329.6,349.4z"/>
			</g>
		</g>
		<path class="st13" d="M251.7,314.5c0,1.4-1.1,2.6-2.6,2.6c-1.4,0-2.6-1.1-2.6-2.6c0-1.4,1.1-2.6,2.6-2.6
			C250.6,311.9,251.7,313.1,251.7,314.5z"/>
		<path class="st13" d="M291.4,314.5c0,1.4-1.1,2.6-2.6,2.6c-1.4,0-2.6-1.1-2.6-2.6c0-1.4,1.1-2.6,2.6-2.6
			C290.3,311.9,291.4,313.1,291.4,314.5z"/>
		<path class="st14" d="M300.9,304.8c-3.8-1.8-13.7-5.6-23-1.1c-0.4,0.2-0.3,0.7,0.1,0.7l22.7,1.1
			C301.2,305.6,301.3,305,300.9,304.8z"/>
		<path class="st14" d="M259,303.6c-3.9-1.4-14.2-4.2-23,1.3c-0.3,0.2-0.2,0.7,0.2,0.7l22.7-1.2C259.3,304.3,259.4,303.8,259,303.6z
			"/>
		<path class="st9" d="M269.4,255.7c5.5,0,11.1,0.8,16.4,2.3c28.5,8.2,48.3,36.3,48.3,68.4v4.3c0,14.3-7.6,27.5-19.3,33.6l-10.1,5.3
			c-11,5.8-23.2,8.8-35.4,8.8c-12.2,0-24.4-3-35.4-8.8l-10.1-5.3c-11.7-6.1-19.3-19.3-19.3-33.6v-4.3c0-32.1,19.9-60.2,48.3-68.4
			C258.3,256.5,263.9,255.7,269.4,255.7"/>
		<g>
			<path class="st7" d="M275.6,322.2c-4.5-0.6-9.1-0.6-13.6,0l-46.3,6.3v15.1l46.3-6.3c4.5-0.6,9.1-0.6,13.6,0l46.3,6.3v-15.1
				L275.6,322.2z"/>
			<path class="st8" d="M262.1,337.3l-46.3,6.3v2.8c0,12.6,8.4,23.6,20.5,27l4.8,1.3c17.5,4.8,36,4.9,53.6,0.3l6.6-1.7
				c12.2-3.3,20.8-14.4,20.8-27v-2.6l-46.3-6.3C271.1,336.7,266.6,336.7,262.1,337.3z"/>
		</g>
		<path class="st15" d="M241,257.9c-3.1-5.7-15.7-2.2-19.8,0.2c-4.1,2.4-7.1,6.4-8.1,11.1c-0.6,2.9-0.3,5.9-1.2,8.7
			c-1.3,4.3-5.2,6.1-8.4,8.7c-7.9,6.2-8.1,18.8-1.5,26c0.9,1,1.7,2.1,2.2,3.4c0.2,0.5,0.3,1,0.4,1.6c0,0.3,0.1,0.6,0.1,0.9
			c0,0.4,0,0.8,0.3,1.1c0.1,0.1,0.3,0.2,0.5,0.2c0.2,0,0.3-0.1,0.4-0.2c0.3-0.3,0.5-0.8,0.7-1.2c0.2-0.4,0.4-0.9,0.6-1.3
			c0.4-0.8,0.8-1.6,1.1-2.3c0,0,0,0,0-0.1c0,0,0,0,0-0.1c3.6-7.9,5.9-16.2,10.1-23.8c2-3.7,4.5-7.2,7.4-10.2
			c3.1-3.1,6.4-5.8,9.2-9.2c0.6-0.8,1.2-1.6,1.8-2.4c1.5-2.2,3-4.5,4.1-7C241.7,260.8,241.6,259,241,257.9z"/>
		<path class="st15" d="M298.7,257.9c3.1-5.7,15.7-2.2,19.8,0.2c4.1,2.4,7.1,6.4,8.1,11.1c0.6,2.9,0.3,5.9,1.2,8.7
			c1.3,4.3,5.2,6.1,8.4,8.7c7.9,6.2,8.1,18.8,1.5,26c-0.9,1-1.7,2.1-2.2,3.4c-0.2,0.5-0.3,1-0.4,1.6c0,0.3-0.1,0.6-0.1,0.9
			c0,0.4,0,0.8-0.3,1.1c-0.1,0.1-0.3,0.2-0.5,0.2c-0.2,0-0.3-0.1-0.4-0.2c-0.3-0.3-0.5-0.8-0.7-1.2c-0.2-0.4-0.4-0.9-0.6-1.3
			c-0.4-0.8-0.8-1.6-1.1-2.3c0,0,0,0,0-0.1c0,0,0,0,0-0.1c-3.6-7.9-5.9-16.2-10.1-23.8c-2-3.7-4.5-7.2-7.4-10.2
			c-3.1-3.1-6.4-5.8-9.2-9.2c-0.6-0.8-1.2-1.6-1.8-2.4c-1.5-2.2-3-4.5-4.1-7C298.1,260.8,298.2,259,298.7,257.9z"/>
		<g>
			<defs>
				<path id="SVGID_3_" d="M225.2,273.7c2.2,4.2,10.7,7,14,8.3c13.6,5.5,29,5.3,43.2,2.9c14.2-2.4,32.1-9,39.8-22
					c6-10.2,3-22.2-8-27.3c-11.8-5.5-25.9-4.2-38.3-1.1c-12.5,3.1-24.3,8.9-34.3,17c-4.4,3.6-8.5,7.6-12.1,11.9
					C227.3,266,223.3,270.1,225.2,273.7z"/>
			</defs>
			<clipPath id="SVGID_4_">
				<use xlink:href="#SVGID_3_"  style="overflow:visible;"/>
			</clipPath>
			<path class="st16" d="M225.2,273.7c2.2,4.2,10.7,7,14,8.3c13.6,5.5,29,5.3,43.2,2.9c14.2-2.4,32.1-9,39.8-22
				c6-10.2,3-22.2-8-27.3c-11.8-5.5-25.9-4.2-38.3-1.1c-12.5,3.1-24.3,8.9-34.3,17c-4.4,3.6-8.5,7.6-12.1,11.9
				C227.3,266,223.3,270.1,225.2,273.7z"/>
			<path class="st17" d="M222,262.7c6.1,6.3,15,9.3,23.6,10.8c10.9,1.9,22,1.8,32.9-0.2c11.2-2.1,21.9-6.2,32-11.5
				c5.1-2.7,10.1-5.7,15-8.8c4.5-2.9,9.7-5.7,13.2-9.7c0.2-0.3,0.5-0.8,0.9-0.7"/>
			<path class="st17" d="M220.8,254.4c6.8,5.7,15.8,7.7,24.6,8.3c11,0.8,22.1-0.5,32.7-3.6c10.9-3.2,21.2-8.5,30.6-14.7
				c4.8-3.2,9.5-6.7,14-10.3c4.2-3.4,9-6.6,12.2-11c0.2-0.3,0.4-0.9,0.8-0.8"/>
		</g>
		<polygon class="st10" points="278.7,400.2 258.5,400.2 268.6,418.4 		"/>
	</g>
	<g class="st0">
		<path class="st13" d="M484.1,407.2h-110c-6.9,0-12.4-5.6-12.4-12.4v-47.5c0-6.9,5.6-12.4,12.4-12.4h110c6.9,0,12.4,5.6,12.4,12.4
			v47.5C496.5,401.6,490.9,407.2,484.1,407.2z"/>
		<g>
			<path class="st18" d="M509.9,404.1c0-28.2-22.9-51.1-51.1-51.1H430l0,159.7h79.9V404.1z"/>
			<path class="st3" d="M401.2,353c-28.2,0-51.1,22.9-51.1,51.1v108.7H430l0-159.7H401.2z"/>
		</g>
		<path class="st13" d="M389.6,351.9l-10.5,3.1c0,0-2.4,54.9-29.2,85.4c0.1,0.5,0.1,1.1,0,1.7c0,0.1,0,0.2,0,0.3
			C363.8,432.2,397.5,402.1,389.6,351.9z"/>
		<path class="st13" d="M471.8,351.9l10.5,3.1c0,0,2.4,54.9,29.2,85.4c-0.1,0.5-0.1,1.1,0,1.7c0,0.1,0,0.2,0,0.3
			C497.6,432.2,463.9,402.1,471.8,351.9z"/>
		<g class="st19">
			<path class="st20" d="M388.5,374.7c26.2,13.7,56.9,13.7,83.1,0l10.1-5.3c3-1.6,5.8-3.5,8.4-5.6c-8.6-6.7-19.5-10.7-31.2-10.7
				h-57.6c-11.8,0-22.6,4-31.2,10.7c2.6,2.2,5.4,4,8.4,5.6L388.5,374.7z"/>
		</g>
		<g class="st19">
			<path class="st20" d="M400,361.6c19,9.9,41.1,9.9,60.1,0l7.3-3.8c2.2-1.1,4.2-2.5,6-4.1c-6.2-4.8-14.1-7.7-22.6-7.7h-41.6
				c-8.5,0-16.3,2.9-22.6,7.7c1.9,1.6,3.9,2.9,6,4.1L400,361.6z"/>
		</g>
		<g>
			<path class="st3" d="M450.1,214.9L450.1,214.9c-13.2-3.8-27-3.8-40.2,0l0,0C375.8,224.7,352,258,352,296v4.3
				c0,19.3,10.2,36.9,26.3,45.3l10.1,5.3c26.2,13.7,56.9,13.7,83.1,0l10.1-5.3c16.1-8.5,26.3-26.1,26.3-45.3V296
				C508,258,484.3,224.7,450.1,214.9z"/>
			<g>
				<defs>
					<path id="SVGID_5_" d="M430,225.3c5.5,0,11.1,0.8,16.4,2.3c28.5,8.2,48.3,36.3,48.3,68.4v4.3c0,14.3-7.6,27.5-19.3,33.6
						l-10.1,5.3c-11,5.8-23.2,8.8-35.4,8.8c-12.2,0-24.4-3-35.4-8.8l-10.1-5.3c-11.7-6.1-19.3-19.3-19.3-33.6V296
						c0-32.1,19.9-60.2,48.3-68.4C419,226.1,424.5,225.3,430,225.3"/>
				</defs>
				<clipPath id="SVGID_6_">
					<use xlink:href="#SVGID_5_"  style="overflow:visible;"/>
				</clipPath>
				<path class="st21" d="M430,225.3c5.5,0,11.1,0.8,16.4,2.3c28.5,8.2,48.3,36.3,48.3,68.4v4.3c0,14.3-7.6,27.5-19.3,33.6
					l-10.1,5.3c-11,5.8-23.2,8.8-35.4,8.8c-12.2,0-24.4-3-35.4-8.8l-10.1-5.3c-11.7-6.1-19.3-19.3-19.3-33.6V296
					c0-32.1,19.9-60.2,48.3-68.4C419,226.1,424.5,225.3,430,225.3"/>
				<polygon class="st22" points="428.1,286.7 420.9,299.2 435.4,299.2 				"/>
				<circle class="st22" cx="396.4" cy="301.5" r="13"/>
				<circle class="st22" cx="461" cy="301.5" r="13"/>
				<g class="st23">
					<polygon class="st7" points="380.4,299.2 364.1,279.7 364.1,282.2 378.7,304 					"/>
					<polygon class="st8" points="381.7,326.3 361.7,310.7 362.2,313.1 381,331.4 					"/>
					<g>
						<polygon class="st7" points="478,299.2 494.3,279.7 494.3,282.2 479.7,304 						"/>
						<polygon class="st8" points="476.6,326.3 496.6,310.7 496.1,313.1 477.3,331.4 						"/>
					</g>
				</g>
				<circle class="st24" cx="409.8" cy="284.1" r="2.6"/>
				<path class="st24" d="M452,284.1c0,1.4-1.1,2.6-2.6,2.6c-1.4,0-2.6-1.1-2.6-2.6c0-1.4,1.1-2.6,2.6-2.6
					C450.9,281.5,452,282.7,452,284.1z"/>
				<path class="st24" d="M461.5,274.4c-3.8-1.8-13.7-5.6-23-1.1c-0.4,0.2-0.3,0.7,0.1,0.7l22.7,1.1
					C461.8,275.1,461.9,274.6,461.5,274.4z"/>
				<path class="st24" d="M419.6,273.2c-3.9-1.4-14.2-4.2-23,1.3c-0.3,0.2-0.2,0.7,0.2,0.7l22.7-1.2
					C419.9,273.9,420,273.3,419.6,273.2z"/>
				<path class="st22" d="M396.3,234.7c0,0,10.9,24.7,50.5,17.1l-16-7.8c0,0,20.9,7.7,40.1-3.3C470.9,240.6,439.3,208.3,396.3,234.7
					z"/>
				<path class="st22" d="M396.3,234.7c0,0-5,12.2,8.2,21.1L396.3,234.7z"/>
				<path class="st24" d="M397.1,232.2c0,0,10.7,24.7,49.7,17.1l-15.7-7.8c0,0,20.6,7.7,39.5-3.3
					C470.6,238.1,439.5,205.8,397.1,232.2z"/>
				<path class="st24" d="M397.1,232.2c0,0-4.9,12.2,8,21.1L397.1,232.2z"/>
				<g class="st23">
					<path class="st7" d="M436,291.8c-4.5-0.6-9.1-0.6-13.6,0l-46.3,6.3v15.1l46.3-6.3c4.5-0.6,9.1-0.6,13.6,0l46.3,6.3v-15.1
						L436,291.8z"/>
					<path class="st8" d="M422.4,306.9l-46.3,6.3v2.8c0,12.6,8.4,23.6,20.5,27l4.8,1.3c17.5,4.8,36,4.9,53.6,0.3l6.6-1.7
						c12.2-3.3,20.8-14.4,20.8-27v-2.6l-46.3-6.3C431.5,306.3,426.9,306.3,422.4,306.9z"/>
				</g>
			</g>
		</g>
	</g>
	<g class="st0">
		<path class="st2" d="M566.1,410.5"/>
		<g>
			<g>
				<g>
					
						<rect x="317" y="92.6" transform="matrix(0.3743 -0.9273 0.9273 0.3743 103.7719 359.1193)" class="st13" width="2" height="20"/>
				</g>
				<g>
					<path class="st13" d="M329.5,111c-2.5,1.2-5.6,0.2-6.8-2.4c-1.2-2.5-0.2-5.6,2.4-6.8c2.5-1.2,5.6-0.2,6.8,2.4
						C333.1,106.7,332.1,109.8,329.5,111z"/>
				</g>
			</g>
			<g>
				<g>
					
						<rect x="291.6" y="85.3" transform="matrix(0.3178 -0.9482 0.9482 0.3178 109.2769 342.409)" class="st13" width="2" height="20"/>
				</g>
				<g>
					<g>
						<path class="st13" d="M280.6,87.6c2.5-1.4,5.6-0.5,7,2c1.4,2.5,0.5,5.6-2,7c-2.5,1.4-5.6,0.5-7-2
							C277.2,92.1,278.1,89,280.6,87.6z"/>
					</g>
				</g>
			</g>
			<g>
				<g>
					
						<rect x="308.6" y="103.6" transform="matrix(0.9448 -0.3277 0.3277 0.9448 -19.0637 107.56)" class="st13" width="2" height="13.5"/>
				</g>
				<g>
					<path class="st13" d="M310.5,119.9c-1.7-0.7-2.6-2.8-1.8-4.5c0.7-1.7,2.8-2.6,4.5-1.8c1.7,0.7,2.6,2.8,1.8,4.5
						C314.3,119.8,312.2,120.6,310.5,119.9z"/>
				</g>
			</g>
			<g>
				<g>
					
						<rect x="294.1" y="80.3" transform="matrix(0.847 -0.5316 0.5316 0.847 0.1733 169.828)" class="st13" width="2" height="8.7"/>
				</g>
				<g>
					<path class="st13" d="M293.2,78.8c1.2,0.2,2,1.4,1.8,2.6c-0.2,1.2-1.4,2-2.6,1.8c-1.2-0.2-2-1.4-1.8-2.6
						C290.8,79.4,292,78.6,293.2,78.8z"/>
				</g>
			</g>
			<g>
				<g>
					
						<rect x="308.5" y="82.3" transform="matrix(0.3685 -0.9296 0.9296 0.3685 120.0855 343.4241)" class="st13" width="8.7" height="2"/>
				</g>
				<g>
					<path class="st13" d="M316.4,78.3c0.5,1.1,0.1,2.4-1,3c-1.1,0.5-2.4,0.1-3-1c-0.5-1.1-0.1-2.4,1-3
						C314.5,76.8,315.9,77.2,316.4,78.3z"/>
				</g>
			</g>
			<g>
				<g>
					
						<rect x="293.7" y="111" transform="matrix(0.3319 -0.9433 0.9433 0.3319 93.4567 355.8955)" class="st13" width="8.7" height="2"/>
				</g>
				<g>
					<path class="st13" d="M294.6,117.1c-0.6-1.1-0.2-2.4,0.9-3c1.1-0.6,2.4-0.2,3,0.9c0.6,1.1,0.2,2.4-0.9,3
						C296.5,118.6,295.2,118.2,294.6,117.1z"/>
				</g>
			</g>
			<g>
				
					<ellipse transform="matrix(0.7576 -0.6527 0.6527 0.7576 9.8365 222.5932)" class="st25" cx="304.6" cy="98.1" rx="14.9" ry="14.9"/>
			</g>
			<g>
				<path class="st13" d="M299.8,95.3c-1.5,0.7-3.4,0.1-4.1-1.4c-0.7-1.5-0.1-3.4,1.4-4.1c1.5-0.7,3.4-0.1,4.1,1.4
					C301.9,92.7,301.3,94.5,299.8,95.3z"/>
			</g>
			<g>
				<path class="st13" d="M314.8,103.2c-1.5,0.7-3.4,0.1-4.1-1.4c-0.7-1.5-0.1-3.4,1.4-4.1s3.4-0.1,4.1,1.4
					C317,100.6,316.4,102.4,314.8,103.2z"/>
			</g>
			<g>
				<path class="st13" d="M309.2,107.7c-1,0.5-2.1,0.1-2.6-0.9c-0.5-1-0.1-2.1,0.9-2.6s2.1-0.1,2.6,0.9S310.2,107.3,309.2,107.7z"/>
			</g>
		</g>
		<g>
			<g>
				<g>
					
						<rect x="151" y="380" transform="matrix(0.237 -0.9715 0.9715 0.237 -262.9099 445.1773)" class="st13" width="2" height="20"/>
				</g>
				<g>
					<path class="st13" d="M164.6,396.6c-2.3,1.6-5.5,1-7.1-1.4s-1-5.5,1.4-7.1c2.3-1.6,5.5-1,7.1,1.4
						C167.5,391.8,166.9,395,164.6,396.6z"/>
				</g>
			</g>
			<g>
				<g>
					
						<rect x="124.7" y="376.3" transform="matrix(0.1781 -0.984 0.984 0.1781 -276.7836 441.2609)" class="st13" width="2" height="20"/>
				</g>
				<g>
					<g>
						<path class="st13" d="M112.8,380.5c2.2-1.7,5.5-1.3,7.2,0.9c1.7,2.2,1.3,5.5-0.9,7.2c-2.2,1.7-5.5,1.3-7.2-0.9
							C110.1,385.4,110.5,382.2,112.8,380.5z"/>
					</g>
				</g>
			</g>
			<g>
				<g>
					
						<rect x="143.8" y="392.1" transform="matrix(0.8878 -0.4602 0.4602 0.8878 -167.2727 111.3666)" class="st13" width="2" height="13.5"/>
				</g>
				<g>
					<path class="st13" d="M147,408.1c-1.8-0.5-2.9-2.4-2.4-4.2c0.5-1.8,2.4-2.9,4.2-2.4c1.8,0.5,2.9,2.4,2.4,4.2
						C150.7,407.5,148.8,408.6,147,408.1z"/>
				</g>
			</g>
			<g>
				<g>
					
						<rect x="125.7" y="371.1" transform="matrix(0.7617 -0.6479 0.6479 0.7617 -213.0317 171.5551)" class="st13" width="2" height="8.7"/>
				</g>
				<g>
					<path class="st13" d="M124,369.9c1.2,0,2.2,1.1,2.1,2.3c0,1.2-1.1,2.2-2.3,2.1c-1.2,0-2.2-1.1-2.1-2.3
						C121.7,370.8,122.8,369.9,124,369.9z"/>
				</g>
			</g>
			<g>
				<g>
					
						<rect x="139.7" y="370.6" transform="matrix(0.231 -0.9729 0.9729 0.231 -250.7302 425.9127)" class="st13" width="8.7" height="2"/>
				</g>
				<g>
					<path class="st13" d="M146.9,366.1c0.7,1,0.4,2.4-0.6,3.1c-1,0.7-2.4,0.4-3.1-0.6c-0.7-1-0.4-2.4,0.6-3.1
						C144.8,364.8,146.2,365.1,146.9,366.1z"/>
				</g>
			</g>
			<g>
				<g>
					
						<rect x="129.2" y="401.1" transform="matrix(0.1928 -0.9812 0.9812 0.1928 -286.7512 455.5418)" class="st13" width="8.7" height="2"/>
				</g>
				<g>
					<path class="st13" d="M130.9,407.6c-0.7-1-0.5-2.4,0.4-3.1c1-0.7,2.4-0.5,3.1,0.4c0.7,1,0.5,2.4-0.4,3.1
						C133,408.8,131.6,408.6,130.9,407.6z"/>
				</g>
			</g>
			<g>
				
					<ellipse transform="matrix(0.9915 -0.1304 0.1304 0.9915 -49.3132 21.3056)" class="st25" cx="138.1" cy="387.3" rx="14.9" ry="14.9"/>
			</g>
			<g>
				<path class="st13" d="M132.9,385.3c-1.4,1-3.3,0.6-4.3-0.8c-1-1.4-0.6-3.3,0.8-4.3c1.4-1,3.3-0.6,4.3,0.8
					C134.6,382.4,134.3,384.3,132.9,385.3z"/>
			</g>
			<g>
				<path class="st13" d="M148.9,391c-1.4,1-3.3,0.6-4.3-0.8c-1-1.4-0.6-3.3,0.8-4.3c1.4-1,3.3-0.6,4.3,0.8
					C150.7,388.1,150.3,390,148.9,391z"/>
			</g>
			<g>
				<path class="st13" d="M144,396.3c-0.9,0.6-2.1,0.4-2.7-0.5c-0.6-0.9-0.4-2.1,0.5-2.7c0.9-0.6,2.1-0.4,2.7,0.5
					C145.1,394.5,144.9,395.7,144,396.3z"/>
			</g>
		</g>
		<g>
			<g>
				<g>
					
						<rect x="701.5" y="429.4" transform="matrix(0.786 -0.6182 0.6182 0.786 -121.3007 528.3399)" class="st13" width="2" height="20"/>
				</g>
				<g>
					<path class="st13" d="M708.4,452.4c-2.8-0.2-4.9-2.6-4.8-5.5c0.2-2.8,2.6-4.9,5.5-4.8c2.8,0.2,4.9,2.6,4.8,5.5
						C713.6,450.4,711.2,452.6,708.4,452.4z"/>
				</g>
			</g>
			<g>
				<g>
					
						<rect x="683.2" y="410.3" transform="matrix(0.7473 -0.6644 0.6644 0.7473 -106.4218 560.7904)" class="st13" width="2" height="20"/>
				</g>
				<g>
					<g>
						<path class="st13" d="M677.6,407.7c2.8,0,5.1,2.3,5.1,5.2c0,2.8-2.3,5.1-5.2,5.1c-2.8,0-5.1-2.3-5.1-5.2
							C672.4,410,674.7,407.7,677.6,407.7z"/>
					</g>
				</g>
			</g>
			<g>
				<g>
					
						<rect x="684.7" y="440.9" transform="matrix(0.1857 -0.9826 0.9826 0.1857 128.8338 1039.2463)" class="st13" width="13.5" height="2"/>
				</g>
				<g>
					<path class="st13" d="M687.5,450.6c-1.1-1.5-0.8-3.7,0.7-4.8c1.5-1.1,3.7-0.8,4.8,0.7c1.1,1.5,0.8,3.7-0.7,4.8
						C690.8,452.4,688.6,452.1,687.5,450.6z"/>
				</g>
			</g>
			<g>
				<g>
					
						<rect x="690.7" y="408" transform="matrix(0.9992 -3.980768e-02 3.980768e-02 0.9992 -15.8662 27.8602)" class="st13" width="2" height="8.7"/>
				</g>
				<g>
					<path class="st13" d="M692.9,406.3c0.9,0.8,1.1,2.2,0.3,3.1c-0.8,0.9-2.2,1.1-3.1,0.3c-0.9-0.8-1.1-2.2-0.3-3.1
						C690.6,405.7,692,405.5,692.9,406.3z"/>
				</g>
			</g>
			<g>
				<g>
					
						<rect x="703.3" y="419" transform="matrix(0.7822 -0.623 0.623 0.7822 -107.5607 532.4029)" class="st13" width="8.7" height="2"/>
				</g>
				<g>
					<path class="st13" d="M713.3,417.5c-0.1,1.2-1.1,2.1-2.3,2.1c-1.2-0.1-2.1-1.1-2.1-2.3c0.1-1.2,1.1-2.1,2.3-2.1
						C712.4,415.2,713.4,416.3,713.3,417.5z"/>
				</g>
			</g>
			<g>
				<g>
					
						<rect x="676.2" y="436.5" transform="matrix(0.7573 -0.6531 0.6531 0.7573 -120.543 550.6865)" class="st13" width="8.7" height="2"/>
				</g>
				<g>
					<path class="st13" d="M675.1,440.3c0-1.2,1-2.2,2.3-2.2s2.2,1,2.2,2.3c0,1.2-1,2.2-2.3,2.2C676,442.5,675,441.5,675.1,440.3z"
						/>
				</g>
			</g>
			<g>
				
					<ellipse transform="matrix(0.9411 -0.3381 0.3381 0.9411 -104.1316 259.6276)" class="st25" cx="693.2" cy="428.7" rx="14.9" ry="14.9"/>
			</g>
			<g>
				<path class="st13" d="M690.4,423.9c-1.7-0.1-3-1.6-2.9-3.3c0.1-1.7,1.6-3,3.3-2.9c1.7,0.1,3,1.6,2.9,3.3
					C693.6,422.8,692.1,424,690.4,423.9z"/>
			</g>
			<g>
				<path class="st13" d="M699.5,438.3c-1.7-0.1-3-1.6-2.9-3.3c0.1-1.7,1.6-3,3.3-2.9c1.7,0.1,3,1.6,2.9,3.3
					C702.7,437.1,701.2,438.4,699.5,438.3z"/>
			</g>
			<g>
				<path class="st13" d="M692.4,439.4c-1.1-0.1-1.9-1-1.8-2c0.1-1.1,1-1.9,2-1.8c1.1,0.1,1.9,1,1.8,2
					C694.4,438.7,693.5,439.5,692.4,439.4z"/>
			</g>
		</g>
		<g>
			<g>
				<g>
					
						<rect x="180.1" y="252.8" transform="matrix(0.9127 -0.4085 0.4085 0.9127 -87.2551 98.4612)" class="st13" width="13.5" height="1.3"/>
				</g>
				<g>
					<path class="st13" d="M196.3,251.8c-0.6,1.8-2.5,2.8-4.3,2.2c-1.8-0.6-2.8-2.5-2.2-4.3c0.6-1.8,2.5-2.8,4.3-2.2
						C195.9,248,196.9,250,196.3,251.8z"/>
				</g>
			</g>
			<g>
				<g>
					
						<rect x="164.6" y="261.7" transform="matrix(0.8865 -0.4628 0.4628 0.8865 -101.9725 109.1035)" class="st13" width="13.5" height="1.3"/>
				</g>
				<g>
					<g>
						<path class="st13" d="M162.1,264.6c0.5-1.8,2.4-3,4.2-2.5c1.8,0.5,3,2.4,2.5,4.2c-0.5,1.8-2.4,3-4.2,2.5
							C162.7,268.4,161.6,266.5,162.1,264.6z"/>
					</g>
				</g>
			</g>
			<g>
				<g>
					
						<rect x="186" y="256.6" transform="matrix(0.4191 -0.908 0.908 0.4191 -128.664 321.2093)" class="st13" width="1.3" height="9.1"/>
				</g>
				<g>
					<path class="st13" d="M191.7,265.2c-1.2,0.5-2.5,0-3-1.2c-0.5-1.2,0-2.5,1.2-3c1.2-0.5,2.5,0,3,1.2
						C193.4,263.3,192.9,264.7,191.7,265.2z"/>
				</g>
			</g>
			<g>
				<g>
					
						<rect x="166.7" y="253.2" transform="matrix(0.2043 -0.9789 0.9789 0.2043 -117.5811 367.6837)" class="st13" width="1.3" height="5.8"/>
				</g>
				<g>
					<path class="st13" d="M163.6,254.4c0.7-0.5,1.6-0.3,2.1,0.3c0.5,0.7,0.3,1.6-0.3,2.1c-0.7,0.5-1.6,0.3-2.1-0.3
						C162.8,255.8,163,254.9,163.6,254.4z"/>
				</g>
			</g>
			<g>
				<g>
					
						<rect x="174.4" y="244" transform="matrix(0.9102 -0.4141 0.4141 0.9102 -86.5549 94.6653)" class="st13" width="1.3" height="5.8"/>
				</g>
				<g>
					<path class="st13" d="M174.3,242.9c0.8,0.3,1.2,1.1,1,1.9c-0.3,0.8-1.1,1.2-1.9,1c-0.8-0.3-1.2-1.1-1-1.9
						C172.7,243.1,173.5,242.6,174.3,242.9z"/>
				</g>
			</g>
			<g>
				<g>
					
						<rect x="181.4" y="264.6" transform="matrix(0.8933 -0.4494 0.4494 0.8933 -100.8322 110.3529)" class="st13" width="1.3" height="5.8"/>
				</g>
				<g>
					<path class="st13" d="M182.9,271.6c-0.8-0.2-1.3-1-1-1.8c0.2-0.8,1-1.3,1.8-1c0.8,0.2,1.3,1,1,1.8
						C184.6,271.4,183.7,271.8,182.9,271.6z"/>
				</g>
			</g>
			<g>
				
					<ellipse transform="matrix(0.1763 -0.9843 0.9843 0.1763 -106.8602 387.9495)" class="st25" cx="178.4" cy="257.8" rx="10.1" ry="10.1"/>
			</g>
			<g>
				<path class="st13" d="M174.8,258.9c-0.4,1.1-1.5,1.7-2.6,1.3c-1.1-0.4-1.7-1.5-1.3-2.6c0.4-1.1,1.5-1.7,2.6-1.3
					C174.5,256.6,175.1,257.8,174.8,258.9z"/>
			</g>
			<g>
				<path class="st13" d="M185.6,255.3c-0.4,1.1-1.5,1.7-2.6,1.3c-1.1-0.4-1.7-1.5-1.3-2.6c0.4-1.1,1.5-1.7,2.6-1.3
					C185.4,253,186,254.2,185.6,255.3z"/>
			</g>
			<g>
				<path class="st13" d="M185.2,260.1c-0.2,0.7-0.9,1-1.6,0.8c-0.7-0.2-1-0.9-0.8-1.6c0.2-0.7,0.9-1,1.6-0.8
					C185.1,258.7,185.5,259.4,185.2,260.1z"/>
			</g>
		</g>
		<g>
			<g>
				<g>
					
						<rect x="609.5" y="221.4" transform="matrix(0.3596 -0.9331 0.9331 0.3596 177.8908 715.4387)" class="st13" width="1.3" height="13.5"/>
				</g>
				<g>
					<path class="st13" d="M618,233.6c-1.7,0.9-3.8,0.2-4.6-1.5c-0.9-1.7-0.2-3.8,1.5-4.6c1.7-0.9,3.8-0.2,4.6,1.5
						C620.4,230.7,619.7,232.8,618,233.6z"/>
				</g>
			</g>
			<g>
				<g>
					
						<rect x="592.3" y="216.7" transform="matrix(0.3027 -0.9531 0.9531 0.3027 200.5256 720.8997)" class="st13" width="1.3" height="13.5"/>
				</g>
				<g>
					<g>
						<path class="st13" d="M584.8,218.4c1.6-1,3.8-0.4,4.7,1.2c1,1.6,0.4,3.8-1.2,4.7c-1.6,1-3.8,0.4-4.7-1.2
							C582.6,221.5,583.1,219.3,584.8,218.4z"/>
					</g>
				</g>
			</g>
			<g>
				<g>
					
						<rect x="603.9" y="228.9" transform="matrix(0.9395 -0.3426 0.3426 0.9395 -43.3714 221.2742)" class="st13" width="1.3" height="9.1"/>
				</g>
				<g>
					<path class="st13" d="M605.3,239.8c-1.2-0.5-1.8-1.8-1.3-3c0.5-1.2,1.8-1.8,3-1.3c1.2,0.5,1.8,1.8,1.3,3
						C607.8,239.7,606.5,240.3,605.3,239.8z"/>
				</g>
			</g>
			<g>
				<g>
					
						<rect x="593.9" y="213.3" transform="matrix(0.8385 -0.5449 0.5449 0.8385 -21.7808 358.9106)" class="st13" width="1.3" height="5.8"/>
				</g>
				<g>
					<path class="st13" d="M593.2,212.3c0.8,0.1,1.4,0.9,1.2,1.7c-0.1,0.8-0.9,1.4-1.7,1.2c-0.8-0.1-1.4-0.9-1.2-1.7
						C591.6,212.7,592.4,212.1,593.2,212.3z"/>
				</g>
			</g>
			<g>
				<g>
					
						<rect x="603.5" y="214.5" transform="matrix(0.3538 -0.9353 0.9353 0.3538 190.691 706.2705)" class="st13" width="5.8" height="1.3"/>
				</g>
				<g>
					<path class="st13" d="M608.8,211.7c0.4,0.7,0.1,1.6-0.6,2c-0.7,0.4-1.6,0.1-2-0.6c-0.4-0.7-0.1-1.6,0.6-2
						C607.6,210.7,608.5,211,608.8,211.7z"/>
				</g>
			</g>
			<g>
				<g>
					
						<rect x="593.8" y="233.9" transform="matrix(0.317 -0.9484 0.9484 0.317 185.0878 726.2314)" class="st13" width="5.8" height="1.3"/>
				</g>
				<g>
					<path class="st13" d="M594.5,238.1c-0.4-0.7-0.2-1.6,0.6-2c0.7-0.4,1.6-0.2,2,0.6c0.4,0.7,0.2,1.6-0.6,2
						C595.9,239.1,594.9,238.8,594.5,238.1z"/>
				</g>
			</g>
			<g>
				
					<ellipse transform="matrix(0.5671 -0.8236 0.8236 0.5671 74.7557 592.5486)" class="st25" cx="601.1" cy="225.2" rx="10.1" ry="10.1"/>
			</g>
			<g>
				<path class="st13" d="M597.8,223.3c-1,0.5-2.3,0.1-2.8-0.9c-0.5-1-0.1-2.3,0.9-2.8c1-0.5,2.3-0.1,2.8,0.9
					C599.2,221.6,598.8,222.8,597.8,223.3z"/>
			</g>
			<g>
				<path class="st13" d="M608,228.5c-1,0.5-2.3,0.1-2.8-0.9c-0.5-1-0.1-2.3,0.9-2.8c1-0.5,2.3-0.1,2.8,0.9
					C609.5,226.7,609,228,608,228.5z"/>
			</g>
			<g>
				<path class="st13" d="M604.3,231.6c-0.6,0.3-1.4,0.1-1.7-0.6c-0.3-0.6-0.1-1.4,0.6-1.7c0.6-0.3,1.4-0.1,1.7,0.6
					C605.2,230.5,604.9,231.3,604.3,231.6z"/>
			</g>
		</g>
		<path class="st26" d="M685.3,277.6c-0.6-1.3-2.2-1.8-3.5-1.1c-0.4,0.2-0.8,0.5-1,0.9l-2.1-0.8c0.4-1.7,0.3-3.6-0.6-5.3
			c-0.6-1.2-1.5-2.2-2.6-2.9l0.8-2.2c0.1,0,0.3,0,0.4-0.1c0.6-0.3,0.8-1,0.5-1.5c-0.3-0.6-1-0.8-1.5-0.5c-0.6,0.3-0.8,1-0.5,1.5
			c0,0.1,0.1,0.2,0.2,0.2l-0.8,2c-2-1-4.5-1-6.6,0.1c-0.2,0.1-0.5,0.3-0.7,0.4l-1.1-1.7c0.1-0.1,0.1-0.2,0.1-0.4
			c0.1-0.6-0.3-1.2-0.9-1.3c-0.6-0.1-1.2,0.3-1.3,0.9c-0.1,0.6,0.3,1.2,0.9,1.3c0.1,0,0.2,0,0.3,0l1.1,1.7c-1.1,1-1.9,2.2-2.3,3.6
			l-1.2-0.4c0.1-0.5,0-1.1-0.3-1.6c-0.7-1.2-2.3-1.7-3.6-0.9s-1.7,2.3-0.9,3.6c0.7,1.2,2.3,1.7,3.6,0.9c0.4-0.2,0.7-0.6,1-1l1.3,0.4
			c-0.2,1.5,0,3.1,0.7,4.6c0.7,1.4,1.8,2.5,3.1,3.2l-0.5,1.5c-0.1,0-0.3,0.1-0.4,0.1c-0.5,0.3-0.7,1-0.4,1.5c0.3,0.5,1,0.7,1.5,0.4
			c0.5-0.3,0.7-1,0.4-1.5c-0.1-0.1-0.1-0.2-0.2-0.2l0.5-1.4c1.6,0.6,3.4,0.7,5.2,0.1l0.3,0.9c-0.2,0.2-0.4,0.4-0.6,0.7
			c-0.4,0.9,0.1,1.9,1,2.3c0.9,0.4,1.9-0.1,2.3-1c0.4-0.9-0.1-1.9-1-2.3c-0.2-0.1-0.5-0.1-0.8-0.1l-0.3-0.9c0,0,0,0,0,0
			c1.7-0.9,2.9-2.3,3.6-3.9l2,0.8c-0.1,0.5,0,1.1,0.2,1.6c0.6,1.3,2.2,1.8,3.5,1.1C685.5,280.5,686,278.9,685.3,277.6z"/>
		<path class="st26" d="M272.1,122.8c-0.6-1.3-2.2-1.8-3.5-1.1c-0.4,0.2-0.8,0.5-1,0.9l-2.1-0.8c0.4-1.7,0.3-3.6-0.6-5.3
			c-0.6-1.2-1.5-2.2-2.6-2.9l0.8-2.2c0.1,0,0.3,0,0.4-0.1c0.6-0.3,0.8-1,0.5-1.5c-0.3-0.6-1-0.8-1.5-0.5c-0.6,0.3-0.8,1-0.5,1.5
			c0,0.1,0.1,0.2,0.2,0.2l-0.8,2c-2-1-4.5-1-6.6,0.1c-0.2,0.1-0.5,0.3-0.7,0.4l-1.1-1.7c0.1-0.1,0.1-0.2,0.1-0.4
			c0.1-0.6-0.3-1.2-0.9-1.3c-0.6-0.1-1.2,0.3-1.3,0.9c-0.1,0.6,0.3,1.2,0.9,1.3c0.1,0,0.2,0,0.3,0l1.1,1.7c-1.1,1-1.9,2.2-2.3,3.6
			l-1.2-0.4c0.1-0.5,0-1.1-0.3-1.6c-0.7-1.2-2.3-1.7-3.6-0.9c-1.2,0.7-1.7,2.3-0.9,3.6c0.7,1.2,2.3,1.7,3.6,0.9c0.4-0.2,0.7-0.6,1-1
			l1.3,0.4c-0.2,1.5,0,3.1,0.7,4.6c0.7,1.4,1.8,2.5,3.1,3.2l-0.5,1.5c-0.1,0-0.3,0.1-0.4,0.1c-0.5,0.3-0.7,1-0.4,1.5
			c0.3,0.5,1,0.7,1.5,0.4c0.5-0.3,0.7-1,0.4-1.5c-0.1-0.1-0.1-0.2-0.2-0.2l0.5-1.4c1.6,0.6,3.4,0.7,5.2,0.1l0.3,0.9
			c-0.2,0.2-0.4,0.4-0.6,0.7c-0.4,0.9,0.1,1.9,1,2.3c0.9,0.4,1.9-0.1,2.3-1c0.4-0.9-0.1-1.9-1-2.3c-0.2-0.1-0.5-0.1-0.8-0.1
			l-0.3-0.9c0,0,0,0,0,0c1.7-0.9,2.9-2.3,3.6-3.9l2,0.8c-0.1,0.5,0,1.1,0.2,1.6c0.6,1.3,2.2,1.8,3.5,1.1
			C272.2,125.7,272.7,124.1,272.1,122.8z"/>
		<path class="st26" d="M170.1,295.3c-0.6-1.3-2.2-1.8-3.5-1.1c-0.4,0.2-0.8,0.5-1,0.9l-2.1-0.8c0.4-1.7,0.3-3.6-0.6-5.3
			c-0.6-1.2-1.5-2.2-2.6-2.9l0.8-2.2c0.1,0,0.3,0,0.4-0.1c0.6-0.3,0.8-1,0.5-1.5c-0.3-0.6-1-0.8-1.5-0.5c-0.6,0.3-0.8,1-0.5,1.5
			c0,0.1,0.1,0.2,0.2,0.2l-0.8,2c-2-1-4.5-1-6.6,0.1c-0.2,0.1-0.5,0.3-0.7,0.4l-1.1-1.7c0.1-0.1,0.1-0.2,0.1-0.4
			c0.1-0.6-0.3-1.2-0.9-1.3c-0.6-0.1-1.2,0.3-1.3,0.9c-0.1,0.6,0.3,1.2,0.9,1.3c0.1,0,0.2,0,0.3,0l1.1,1.7c-1.1,1-1.9,2.2-2.3,3.6
			l-1.2-0.4c0.1-0.5,0-1.1-0.3-1.6c-0.7-1.2-2.3-1.7-3.6-0.9c-1.2,0.7-1.7,2.3-0.9,3.6c0.7,1.2,2.3,1.7,3.6,0.9c0.4-0.2,0.7-0.6,1-1
			l1.3,0.4c-0.2,1.5,0,3.1,0.7,4.6c0.7,1.4,1.8,2.5,3.1,3.2l-0.5,1.5c-0.1,0-0.3,0.1-0.4,0.1c-0.5,0.3-0.7,1-0.4,1.5
			c0.3,0.5,1,0.7,1.5,0.4c0.5-0.3,0.7-1,0.4-1.5c-0.1-0.1-0.1-0.2-0.2-0.2l0.5-1.4c1.6,0.6,3.4,0.7,5.2,0.1l0.3,0.9
			c-0.2,0.2-0.4,0.4-0.6,0.7c-0.4,0.9,0.1,1.9,1,2.3c0.9,0.4,1.9-0.1,2.3-1c0.4-0.9-0.1-1.9-1-2.3c-0.2-0.1-0.5-0.1-0.8-0.1
			l-0.3-0.9c0,0,0,0,0,0c1.7-0.9,2.9-2.3,3.6-3.9l2,0.8c-0.1,0.5,0,1.1,0.2,1.6c0.6,1.3,2.2,1.8,3.5,1.1
			C170.2,298.1,170.8,296.6,170.1,295.3z"/>
		<path class="st26" d="M574,127c-0.6-1.3-2.2-1.8-3.5-1.1c-0.4,0.2-0.8,0.5-1,0.9l-2.1-0.8c0.4-1.7,0.3-3.6-0.6-5.3
			c-0.6-1.2-1.5-2.2-2.6-2.9l0.8-2.2c0.1,0,0.3,0,0.4-0.1c0.6-0.3,0.8-1,0.5-1.5c-0.3-0.6-1-0.8-1.5-0.5c-0.6,0.3-0.8,1-0.5,1.5
			c0,0.1,0.1,0.2,0.2,0.2l-0.8,2c-2-1-4.5-1-6.6,0.1c-0.2,0.1-0.5,0.3-0.7,0.4l-1.1-1.7c0.1-0.1,0.1-0.2,0.1-0.4
			c0.1-0.6-0.3-1.2-0.9-1.3c-0.6-0.1-1.2,0.3-1.3,0.9c-0.1,0.6,0.3,1.2,0.9,1.3c0.1,0,0.2,0,0.3,0l1.1,1.7c-1.1,1-1.9,2.2-2.3,3.6
			l-1.2-0.4c0.1-0.5,0-1.1-0.3-1.6c-0.7-1.2-2.3-1.7-3.6-0.9c-1.2,0.7-1.7,2.3-0.9,3.6c0.7,1.2,2.3,1.7,3.6,0.9c0.4-0.2,0.7-0.6,1-1
			l1.3,0.4c-0.2,1.5,0,3.1,0.7,4.6c0.7,1.4,1.8,2.5,3.1,3.2l-0.5,1.5c-0.1,0-0.3,0.1-0.4,0.1c-0.5,0.3-0.7,1-0.4,1.5
			c0.3,0.5,1,0.7,1.5,0.4c0.5-0.3,0.7-1,0.4-1.5c-0.1-0.1-0.1-0.2-0.2-0.2l0.5-1.4c1.6,0.6,3.4,0.7,5.2,0.1l0.3,0.9
			c-0.2,0.2-0.4,0.4-0.6,0.7c-0.4,0.9,0.1,1.9,1,2.3c0.9,0.4,1.9-0.1,2.3-1c0.4-0.9-0.1-1.9-1-2.3c-0.2-0.1-0.5-0.1-0.8-0.1
			l-0.3-0.9c0,0,0,0,0,0c1.7-0.9,2.9-2.3,3.6-3.9l2,0.8c-0.1,0.5,0,1.1,0.2,1.6c0.6,1.3,2.2,1.8,3.5,1.1
			C574.1,129.8,574.6,128.3,574,127z"/>
		<path class="st26" d="M689.7,320.8c1.1-0.9,1.3-2.6,0.3-3.7c-0.3-0.4-0.7-0.6-1.1-0.8l0.3-2.2c1.8,0,3.6-0.5,5-1.7
			c1.1-0.9,1.8-2,2.3-3.2l2.3,0.3c0,0.1,0.1,0.2,0.2,0.4c0.4,0.5,1.1,0.5,1.6,0.1c0.5-0.4,0.5-1.1,0.1-1.6c-0.4-0.5-1.1-0.5-1.6-0.1
			c-0.1,0.1-0.1,0.1-0.2,0.2l-2.1-0.3c0.5-2.2,0-4.6-1.6-6.5c-0.2-0.2-0.3-0.4-0.5-0.6l1.4-1.4c0.1,0,0.3,0.1,0.4,0.1
			c0.6,0,1.1-0.6,1-1.2c0-0.6-0.6-1.1-1.2-1c-0.6,0-1.1,0.6-1,1.2c0,0.1,0,0.2,0.1,0.3l-1.4,1.5c-1.2-0.9-2.6-1.4-4-1.5l0.1-1.2
			c0.5-0.1,1.1-0.3,1.5-0.7c1-1,1.1-2.6,0.1-3.7c-1-1-2.6-1.1-3.7-0.1c-1,1-1.1,2.6-0.1,3.7c0.3,0.4,0.7,0.6,1.2,0.7L689,299
			c-1.5,0.1-3.1,0.7-4.3,1.7c-1.2,1-2,2.3-2.5,3.8l-1.5-0.2c0-0.1-0.1-0.2-0.2-0.3c-0.4-0.5-1.1-0.5-1.6-0.1s-0.5,1.1-0.1,1.6
			c0.4,0.5,1.1,0.5,1.6,0.1c0.1-0.1,0.1-0.1,0.2-0.2l1.4,0.1c-0.2,1.7,0.1,3.5,1.1,5l-0.8,0.5c-0.2-0.2-0.5-0.3-0.8-0.4
			c-1-0.2-1.8,0.5-2,1.4c-0.2,1,0.5,1.8,1.4,2c1,0.2,1.8-0.5,2-1.4c0-0.3,0-0.5,0-0.8l0.8-0.5c0,0,0,0,0,0c1.2,1.5,2.9,2.4,4.6,2.6
			l-0.3,2.1c-0.5,0-1.1,0.2-1.5,0.6c-1.1,0.9-1.3,2.6-0.3,3.7C687,321.5,688.6,321.7,689.7,320.8z"/>
		<path class="st26" d="M174.6,333.2c0,0.7-0.5,1.2-1.2,1.2c-0.7,0-1.2-0.5-1.2-1.2c0-0.7,0.5-1.2,1.2-1.2
			C174,331.9,174.6,332.5,174.6,333.2z"/>
		<path class="st26" d="M239.9,233c0,0.7-0.5,1.2-1.2,1.2c-0.7,0-1.2-0.5-1.2-1.2c0-0.7,0.5-1.2,1.2-1.2
			C239.4,231.8,239.9,232.3,239.9,233z"/>
		<path class="st26" d="M239.9,124.3c0,0.7-0.5,1.2-1.2,1.2c-0.7,0-1.2-0.5-1.2-1.2c0-0.7,0.5-1.2,1.2-1.2
			C239.4,123.1,239.9,123.6,239.9,124.3z"/>
		<path class="st26" d="M309.6,135.3c0,0.7-0.5,1.2-1.2,1.2c-0.7,0-1.2-0.5-1.2-1.2c0-0.7,0.5-1.2,1.2-1.2
			C309,134,309.6,134.6,309.6,135.3z"/>
		<path class="st26" d="M586.3,123.1c0,0.7-0.5,1.2-1.2,1.2c-0.7,0-1.2-0.5-1.2-1.2s0.5-1.2,1.2-1.2
			C585.8,121.9,586.3,122.4,586.3,123.1z"/>
		<circle class="st26" cx="657.8" cy="242.8" r="1.2"/>
		<circle class="st26" cx="699.7" cy="331.9" r="1.2"/>
		<path class="st26" d="M697.9,336.9c0,0.7-0.5,1.2-1.2,1.2c-0.7,0-1.2-0.5-1.2-1.2s0.5-1.2,1.2-1.2
			C697.3,335.7,697.9,336.2,697.9,336.9z"/>
		<path class="st26" d="M704.8,391.5c0,0.7-0.5,1.2-1.2,1.2c-0.7,0-1.2-0.5-1.2-1.2c0-0.7,0.5-1.2,1.2-1.2
			C704.3,390.3,704.8,390.8,704.8,391.5z"/>
		<path class="st26" d="M735.6,430.9c0,0.7-0.5,1.2-1.2,1.2c-0.7,0-1.2-0.5-1.2-1.2c0-0.7,0.5-1.2,1.2-1.2
			C735,429.7,735.6,430.2,735.6,430.9z"/>
		<path class="st26" d="M667.6,466.3c0,0.7-0.5,1.2-1.2,1.2c-0.7,0-1.2-0.5-1.2-1.2s0.5-1.2,1.2-1.2
			C667.1,465.1,667.6,465.6,667.6,466.3z"/>
		<circle class="st26" cx="589.9" cy="128.6" r="1.2"/>
		<path class="st26" d="M305.9,129.9c0,0.7-0.5,1.2-1.2,1.2c-0.7,0-1.2-0.5-1.2-1.2c0-0.7,0.5-1.2,1.2-1.2
			C305.3,128.6,305.9,129.2,305.9,129.9z"/>
		<path class="st26" d="M232.5,235.5c0,0.7-0.5,1.2-1.2,1.2c-0.7,0-1.2-0.5-1.2-1.2c0-0.7,0.5-1.2,1.2-1.2
			C232,234.2,232.5,234.8,232.5,235.5z"/>
		<path class="st26" d="M171.6,360.5c0,0.7-0.5,1.2-1.2,1.2c-0.7,0-1.2-0.5-1.2-1.2c0-0.7,0.5-1.2,1.2-1.2
			C171.1,359.2,171.6,359.8,171.6,360.5z"/>
		<path class="st26" d="M335.2,374.3c0,0.7-0.5,1.2-1.2,1.2s-1.2-0.5-1.2-1.2s0.5-1.2,1.2-1.2S335.2,373.6,335.2,374.3z"/>
		<path class="st26" d="M174.6,401.3c0,0.7-0.5,1.2-1.2,1.2c-0.7,0-1.2-0.5-1.2-1.2s0.5-1.2,1.2-1.2
			C174,400.1,174.6,400.6,174.6,401.3z"/>
		<circle class="st26" cx="166" cy="355.5" r="1.2"/>
		<path class="st26" d="M181.3,285.3c0,0.7-0.5,1.2-1.2,1.2c-0.7,0-1.2-0.5-1.2-1.2c0-0.7,0.5-1.2,1.2-1.2
			C180.8,284.1,181.3,284.6,181.3,285.3z"/>
		<path class="st26" d="M132.4,322.3c0,0.7-0.5,1.2-1.2,1.2c-0.7,0-1.2-0.5-1.2-1.2c0-0.7,0.5-1.2,1.2-1.2
			C131.8,321,132.4,321.6,132.4,322.3z"/>
	</g>
</g>
</svg>
