<svg width="391" height="174" viewBox="0 0 391 174" fill="none" xmlns="http://www.w3.org/2000/svg">
<path d="M114.26 35.24C113.153 35.24 112.08 35.0933 111.04 34.8C110.013 34.4933 109.187 34.1 108.56 33.62L109.66 31.18C110.26 31.62 110.973 31.9733 111.8 32.24C112.627 32.5067 113.453 32.64 114.28 32.64C115.2 32.64 115.88 32.5067 116.32 32.24C116.76 31.96 116.98 31.5933 116.98 31.14C116.98 30.8067 116.847 30.5333 116.58 30.32C116.327 30.0933 115.993 29.9133 115.58 29.78C115.18 29.6467 114.633 29.5 113.94 29.34C112.873 29.0867 112 28.8333 111.32 28.58C110.64 28.3267 110.053 27.92 109.56 27.36C109.08 26.8 108.84 26.0533 108.84 25.12C108.84 24.3067 109.06 23.5733 109.5 22.92C109.94 22.2533 110.6 21.7267 111.48 21.34C112.373 20.9533 113.46 20.76 114.74 20.76C115.633 20.76 116.507 20.8667 117.36 21.08C118.213 21.2933 118.96 21.6 119.6 22L118.6 24.46C117.307 23.7267 116.013 23.36 114.72 23.36C113.813 23.36 113.14 23.5067 112.7 23.8C112.273 24.0933 112.06 24.48 112.06 24.96C112.06 25.44 112.307 25.8 112.8 26.04C113.307 26.2667 114.073 26.4933 115.1 26.72C116.167 26.9733 117.04 27.2267 117.72 27.48C118.4 27.7333 118.98 28.1333 119.46 28.68C119.953 29.2267 120.2 29.9667 120.2 30.9C120.2 31.7 119.973 32.4333 119.52 33.1C119.08 33.7533 118.413 34.2733 117.52 34.66C116.627 35.0467 115.54 35.24 114.26 35.24ZM125.119 23.64H120.639V21H132.839V23.64H128.359V35H125.119V23.64ZM143.099 32H136.599L135.359 35H132.039L138.279 21H141.479L147.739 35H144.339L143.099 32ZM142.079 29.54L139.859 24.18L137.639 29.54H142.079ZM155.052 30.04V35H151.812V30L146.392 21H149.832L153.572 27.22L157.312 21H160.492L155.052 30.04ZM180.352 21V35H177.112V29.26H170.752V35H167.512V21H170.752V26.52H177.112V21H180.352ZM190.444 35.24C188.991 35.24 187.677 34.9267 186.504 34.3C185.344 33.6733 184.431 32.8133 183.764 31.72C183.111 30.6133 182.784 29.3733 182.784 28C182.784 26.6267 183.111 25.3933 183.764 24.3C184.431 23.1933 185.344 22.3267 186.504 21.7C187.677 21.0733 188.991 20.76 190.444 20.76C191.897 20.76 193.204 21.0733 194.364 21.7C195.524 22.3267 196.437 23.1933 197.104 24.3C197.771 25.3933 198.104 26.6267 198.104 28C198.104 29.3733 197.771 30.6133 197.104 31.72C196.437 32.8133 195.524 33.6733 194.364 34.3C193.204 34.9267 191.897 35.24 190.444 35.24ZM190.444 32.48C191.271 32.48 192.017 32.2933 192.684 31.92C193.351 31.5333 193.871 31 194.244 30.32C194.631 29.64 194.824 28.8667 194.824 28C194.824 27.1333 194.631 26.36 194.244 25.68C193.871 25 193.351 24.4733 192.684 24.1C192.017 23.7133 191.271 23.52 190.444 23.52C189.617 23.52 188.871 23.7133 188.204 24.1C187.537 24.4733 187.011 25 186.624 25.68C186.251 26.36 186.064 27.1333 186.064 28C186.064 28.8667 186.251 29.64 186.624 30.32C187.011 31 187.537 31.5333 188.204 31.92C188.871 32.2933 189.617 32.48 190.444 32.48ZM213.279 35L213.259 26.6L209.139 33.52H207.679L203.579 26.78V35H200.539V21H203.219L208.459 29.7L213.619 21H216.279L216.319 35H213.279ZM230.48 32.4V35H219.64V21H230.22V23.6H222.86V26.64H229.36V29.16H222.86V32.4H230.48Z" fill="#247AED"/>
<path d="M315.8 163.437H391V155.486H315.8V163.437Z" fill="#BFD5DF"/>
<path d="M318.803 151.987H387.939V130.785H318.803V151.987Z" fill="#BFD5DF"/>
<path d="M321.073 133.438H387.957V130.788H318.821V151.933H321.073V133.438Z" fill="#E7E8E8"/>
<path d="M315.76 102.614V155.448H390.96V102.614H315.76ZM387.956 151.933H318.821V130.846H387.956V151.933ZM387.956 127.274H318.821V106.186H387.956V127.274Z" fill="#D9E9F0"/>
<path d="M318.803 127.236L387.939 127.236V106.033H318.803V127.236Z" fill="#BFD5DF"/>
<path d="M321.073 108.837H387.957V106.186H318.821V127.274H321.073V108.837Z" fill="#E7E8E8"/>
<path d="M347.006 114.771H359.77V115.059C359.77 116.96 358.211 118.516 356.305 118.516H350.529C348.623 118.516 347.064 116.96 347.064 115.059V114.771H347.006Z" fill="#D9E9F0"/>
<path d="M347.006 139.488H359.771V139.776C359.771 141.677 358.211 143.233 356.305 143.233H350.529C348.623 143.233 347.064 141.677 347.064 139.776V139.488H347.006Z" fill="#D9E9F0"/>
<path d="M318.803 102.672L387.939 102.672V81.4689H318.803V102.672Z" fill="#BFD5DF"/>
<path d="M321.073 84.1768H387.957V81.5265H318.821V102.614H321.073V84.1768Z" fill="#E7E8E8"/>
<path d="M315.76 53.3523V106.186H390.96V53.3523H315.76ZM387.956 102.614H318.821V81.5265H387.956V102.614ZM387.956 77.9543H318.821V56.8669H387.956V77.9543Z" fill="#D9E9F0"/>
<path d="M318.803 77.9776L387.939 77.9776V56.775L318.803 56.775V77.9776Z" fill="#BFD5DF"/>
<path d="M321.073 59.5173H387.957V56.8669H318.821V77.9543H321.073V59.5173Z" fill="#E7E8E8"/>
<path d="M347.006 65.5092H359.77V65.7973C359.77 67.6987 358.211 69.2543 356.305 69.2543H350.529C348.623 69.2543 347.064 67.6987 347.064 65.7973V65.5092H347.006Z" fill="#D9E9F0"/>
<path d="M347.006 90.1689H359.771V90.457C359.771 92.3583 358.211 93.9139 356.305 93.9139H350.529C348.623 93.9139 347.064 92.3583 347.064 90.457V90.1689H347.006Z" fill="#D9E9F0"/>
<path d="M89.0625 50.2411H291.098C297.393 50.2411 302.707 54.7927 303.747 60.9576L313.739 120.993H66.3638L76.3559 60.9576C77.3955 54.7927 82.7669 50.2411 89.0625 50.2411Z" fill="url(#paint0_linear)"/>
<path d="M84.3835 116.557C101.595 114.252 118.114 114.252 135.268 116.557C137.347 116.845 139.137 115.117 138.906 113.042C137.463 101.865 137.463 90.5722 138.906 79.3947C139.195 77.3205 137.347 75.592 135.268 75.8801C118.056 78.1847 101.537 78.1847 84.3835 75.8801C82.3043 75.592 80.5138 77.3205 80.7448 79.3947C82.1887 90.5722 82.1887 101.865 80.7448 113.042C80.5138 115.117 82.3043 116.845 84.3835 116.557Z" fill="url(#paint1_linear)"/>
<path d="M81.0913 82.5059C89.1196 93.4529 103.732 102.326 121.464 105.668C127.239 106.762 132.9 107.166 138.271 106.993C138.444 109.009 138.618 111.026 138.906 112.985C139.195 115.059 137.347 116.787 135.268 116.499C118.056 114.195 101.537 114.195 84.3835 116.499C82.3043 116.787 80.5138 115.059 80.7448 112.985C82.0155 102.902 82.131 92.6463 81.0913 82.5059Z" fill="#EFF5F7"/>
<path d="M134.863 116.787C146.126 115.289 156.927 115.289 168.189 116.787C169.576 116.96 170.731 115.808 170.558 114.483C169.633 107.166 169.633 99.7331 170.558 92.4159C170.731 91.0331 169.576 89.9384 168.189 90.1113C156.927 91.6093 146.126 91.6093 134.863 90.1113C133.477 89.9384 132.322 91.0907 132.495 92.4159C133.42 99.7331 133.42 107.166 132.495 114.483C132.322 115.866 133.477 116.96 134.863 116.787Z" fill="url(#paint2_linear)"/>
<path d="M132.726 94.4901C137.982 101.634 147.57 107.454 159.179 109.643C162.934 110.334 166.63 110.623 170.211 110.507C170.326 111.832 170.442 113.158 170.615 114.425C170.789 115.808 169.633 116.903 168.247 116.73C156.985 115.232 146.184 115.232 134.921 116.73C133.535 116.903 132.38 115.75 132.553 114.425C133.304 107.857 133.42 101.174 132.726 94.4901Z" fill="#EFF5F7"/>
<path d="M294.043 116.557C276.831 114.252 260.312 114.252 243.159 116.557C241.079 116.845 239.289 115.117 239.52 113.042C240.964 101.865 240.964 90.5722 239.52 79.3947C239.231 77.3205 241.079 75.592 243.159 75.8801C260.37 78.1847 276.889 78.1847 294.043 75.8801C296.122 75.592 297.912 77.3205 297.681 79.3947C296.238 90.5722 296.238 101.865 297.681 113.042C297.912 115.117 296.122 116.845 294.043 116.557Z" fill="url(#paint3_linear)"/>
<path d="M297.335 82.5059C289.307 93.4529 274.694 102.326 256.963 105.668C251.187 106.762 245.527 107.166 240.155 106.993C239.982 109.009 239.809 111.026 239.52 112.985C239.231 115.059 241.079 116.787 243.159 116.499C260.37 114.195 276.889 114.195 294.043 116.499C296.122 116.787 297.912 115.059 297.681 112.985C296.353 102.902 296.237 92.6463 297.335 82.5059Z" fill="#EFF5F7"/>
<path d="M243.563 116.787C232.3 115.289 221.499 115.289 210.237 116.787C208.85 116.96 207.695 115.808 207.869 114.483C208.793 107.166 208.793 99.7331 207.869 92.4159C207.695 91.0331 208.85 89.9384 210.237 90.1113C221.499 91.6093 232.3 91.6093 243.563 90.1113C244.949 89.9384 246.104 91.0908 245.931 92.4159C245.007 99.7331 245.007 107.166 245.931 114.483C246.104 115.866 244.891 116.96 243.563 116.787Z" fill="url(#paint4_linear)"/>
<path d="M245.7 94.4901C240.444 101.634 230.856 107.454 219.247 109.643C215.493 110.334 211.796 110.623 208.215 110.507C208.1 111.832 207.984 113.158 207.811 114.425C207.638 115.808 208.793 116.903 210.179 116.73C221.442 115.232 232.242 115.232 243.505 116.73C244.891 116.903 246.046 115.75 245.873 114.425C245.064 107.857 245.007 101.174 245.7 94.4901Z" fill="#EFF5F7"/>
<path d="M240.848 117.076C233.802 114.771 227.564 112.467 223.983 111.372C224.041 111.372 224.099 111.314 224.156 111.141C224.387 110.392 224.618 106.763 224.792 102.557C225.023 95.9884 224.907 87.9222 223.868 86.3666L245.642 90.3421L266.608 94.3752C267.012 94.4904 267.359 94.6056 267.705 94.7785C274.81 97.7169 277.755 108.145 281.221 112.063C284.051 115.232 284.859 116.269 285.495 116.845C284.108 119.035 275.56 120.36 268.283 120.36C265.453 120.36 250.205 120.187 240.848 117.076Z" fill="url(#paint5_linear)"/>
<path d="M216.648 114.252C216.532 113.907 216.475 113.503 216.475 112.985C216.417 111.372 217.456 108.376 218.323 105.956C218.958 104.342 219.536 103.017 219.651 102.672C220.633 102.672 221.499 102.672 222.25 102.614C222.424 104.054 223.405 111.314 223.983 111.372C227.564 112.466 233.802 114.771 240.848 117.076C234.668 115.981 222.366 116.557 220.402 116.327C218.612 116.154 217.11 115.923 216.648 114.252Z" fill="url(#paint6_linear)"/>
<path d="M219.651 102.671C209.255 102.844 185.921 103.248 174.774 103.478C174.023 103.536 173.099 103.593 172.001 103.709C170.269 103.824 168.189 103.997 165.879 104.17L165.764 102.268C165.764 102.268 217.399 86.4814 223.001 86.251L223.925 86.4238C224.965 87.9218 225.08 96.0457 224.849 102.614C224.561 102.614 223.694 102.614 222.308 102.671C221.499 102.614 220.633 102.614 219.651 102.671Z" fill="#FBC4B1"/>
<path d="M224.734 102.556C224.619 106.762 224.33 110.392 224.099 111.141C224.041 111.314 223.983 111.372 223.925 111.372C223.348 111.314 222.366 103.997 222.193 102.614C223.579 102.556 224.503 102.556 224.734 102.556Z" fill="#1F1953"/>
<path d="M219.651 102.671C219.478 103.017 218.9 104.342 218.323 105.956C217.976 105.898 217.456 105.84 216.763 105.783C207.522 104.861 171.944 103.709 171.944 103.709C173.041 103.651 174.023 103.536 174.716 103.478C185.921 103.248 209.255 102.844 219.651 102.671Z" fill="#F8A38A"/>
<path d="M216.763 105.783C217.399 105.84 217.919 105.898 218.323 105.956C217.399 108.318 216.417 111.372 216.475 112.985C216.475 113.503 216.532 113.907 216.648 114.252C215.031 114.656 213.067 115.174 210.179 115.693C202.44 117.018 188.462 117.709 179.972 117.421C178.932 117.421 177.835 117.364 176.622 117.364C176.622 117.364 176.333 117.364 175.813 117.364C183.842 117.248 213.702 113.964 214.511 113.273C215.262 112.581 216.763 105.783 216.763 105.783Z" fill="#F8A38A"/>
<path d="M175.409 117.306C172.406 117.306 158.371 117.018 149.938 117.479C146.473 117.652 143.989 118.746 143.527 118.804C142.199 119.092 141.101 119.611 139.657 119.38C138.733 119.207 137.809 118.689 137.405 117.882C137.058 117.191 137.116 116.442 137.174 115.693C137.405 112.697 137.982 109.528 136.885 106.705C136.134 104.746 135.094 103.19 134.286 101.231C133.477 99.2146 132.957 96.9676 133.824 95.0086C133.939 94.7782 134.055 94.4901 133.939 94.2596C133.882 94.1444 133.708 94.0292 133.593 93.9139C132.784 93.3378 132.322 92.2431 132.553 91.3212C132.784 90.3417 133.939 89.6503 134.806 89.996C135.961 90.457 136.134 91.8974 136.654 92.9921C137.231 94.1444 138.387 95.2967 139.311 96.1609C142.43 99.2146 144.336 102.441 147.512 105.552C148.436 105.495 149.361 105.379 150.285 105.322C155.31 104.919 161.028 104.458 165.821 104.112C168.132 103.939 170.211 103.766 171.944 103.651C171.944 103.651 207.522 104.803 216.763 105.725C216.763 105.725 215.262 112.524 214.453 113.215C213.644 113.849 183.784 117.191 175.756 117.306C175.698 117.306 175.698 117.306 175.64 117.306C175.525 117.306 175.467 117.306 175.409 117.306Z" fill="#FAB9A7"/>
<path d="M152.191 100.77C148.436 100.482 149.072 97.4861 150.111 96.7947C151.151 96.0457 152.248 97.5437 153.635 98.0046C154.963 98.4655 165.706 102.268 165.706 102.268L165.821 104.169C161.027 104.515 155.31 104.976 150.285 105.379C149.938 104.688 148.898 102.671 148.956 101.692C149.072 100.597 151.671 100.713 152.191 100.77Z" fill="#FBC4B1"/>
<path d="M299.01 48.743C298.836 49.7225 296.006 65.5669 294.736 72.3079C293.407 79.049 290.75 81.5265 290.577 81.6993L296.988 80.7775L299.01 48.743ZM277.697 47.4179C277.466 48.1093 269.496 69.8305 267.59 73.6907C265.626 77.6662 259.966 81.1808 259.966 81.1808C258.58 81.3536 256.962 81.5265 255.287 81.6993C253.844 81.5841 252.169 81.4689 251.533 81.4689C251.129 81.4689 250.263 81.8146 249.338 82.3331C246.566 82.6212 244.545 82.8517 244.545 82.8517H244.429L242.523 72.1927H242.581L259.33 70.0609C259.33 70.0609 275.791 39.755 279.372 36.0099C281.336 33.9934 284.744 33.0139 288.209 32.6106L288.44 34.2814C288.44 34.2814 293.985 36.1828 299.183 33.0715C299.125 32.8411 299.125 32.6106 299.068 32.3225C304.554 32.8411 312.64 35.0881 313.334 44.3066C314.084 53.4099 309.868 75.592 307.442 84.8106C306.172 90.0536 305.248 91.2636 302.648 91.6093C302.302 91.6669 301.551 91.7245 300.511 91.8397C294.389 92.4159 278.621 93.5682 277.408 93.5106C276.022 93.453 269.438 92.9921 269.207 92.6464C269.149 92.5887 269.091 92.3007 269.091 91.8397C268.86 89.8232 268.514 84.8106 268.572 84.753L267.59 84.9258C267.59 84.9258 268.86 80.4894 270.478 74.4973C272.903 65.855 276.196 53.7556 277.697 47.4179Z" fill="url(#paint7_linear)"/>
<path d="M299.011 48.743L296.931 80.7199L290.52 81.6417C290.693 81.4689 293.408 78.9914 294.679 72.2503C296.065 65.5669 298.837 49.7225 299.011 48.743Z" fill="#716CB1"/>
<path d="M294.678 23.7378C294.678 23.7378 294.851 27.3099 295.833 26.9066C296.815 26.5033 296.468 22.355 296.468 22.355C296.122 23.3344 295.487 24.0835 294.678 23.7378ZM298.721 27.8861C298.606 29.0384 298.837 31.1126 299.01 32.4954C299.068 32.7835 299.068 33.0139 299.125 33.2444C293.985 36.3556 288.382 34.4543 288.382 34.4543L288.151 32.7835L288.094 32.3801C291.79 32.3225 292.945 30.7669 292.945 30.1907C290.693 30.7669 289.076 31.055 287.92 31.1126C286.13 31.2278 285.495 30.9974 285.495 30.9974C281.278 25.8695 280.181 22.0093 279.43 15.7291C279.43 15.7291 280.758 15.0954 281.683 14.8073C282.664 14.5192 286.765 13.3093 287.574 15.0378C288.44 16.7662 290.288 16.5934 290.751 17.4C291.213 18.2066 292.31 22.4702 292.945 22.4702C293.581 22.4702 293.523 18.6676 293.523 18.6676C294.967 16.9967 296.295 17.8033 296.757 19.359C296.931 20.0503 296.873 21.0298 296.642 21.894C296.7 22.1245 297.393 26.3881 297.624 26.9642C297.855 27.5404 298.721 27.8861 298.721 27.8861Z" fill="#FBC4B2"/>
<path d="M296.469 22.355C296.469 22.355 296.873 26.5033 295.833 26.9066C294.851 27.3099 294.678 23.7378 294.678 23.7378C295.487 24.0835 296.122 23.3344 296.469 22.355Z" fill="#F9B099"/>
<path d="M292.946 30.1331C292.946 30.7093 291.791 32.3225 288.094 32.3225L287.92 31.055C289.076 30.9974 290.693 30.7093 292.946 30.1331Z" fill="#F9B099"/>
<path d="M294.851 111.544C292.31 114.425 286.939 117.882 285.957 117.191C285.726 117.018 285.552 116.903 285.321 116.73C284.686 116.154 283.877 115.174 281.047 111.948C277.582 108.03 274.636 97.6014 267.59 94.7206C267.59 94.7206 272.961 95.5272 280.99 95.8153C289.018 96.1033 300.107 95.2967 300.107 95.2967C299.125 100.54 296.815 109.297 294.851 111.544Z" fill="url(#paint8_linear)"/>
<path d="M301.436 20.9722C300.743 23.5073 300.165 24.8901 298.721 27.8861C298.721 27.8861 297.855 27.5404 297.624 26.9643C297.393 26.3881 296.699 22.0669 296.642 21.8941C296.873 21.0298 296.931 20.0503 296.757 19.359C296.353 17.8033 294.967 16.9967 293.523 18.6676C293.523 18.6676 293.581 22.4702 292.945 22.4702C292.31 22.4702 291.213 18.2066 290.751 17.4C290.288 16.5934 288.44 16.7662 287.574 15.0378C286.707 13.3093 282.607 14.5192 281.683 14.8073C280.758 15.0954 279.43 15.7292 279.43 15.7292C278.102 14.8073 277.178 13.2517 276.946 11.5808C276.715 9.90995 277.178 8.12385 278.217 6.79869C278.39 7.202 278.852 7.31723 279.257 7.202C279.661 7.08676 279.95 6.79869 280.296 6.51061C281.509 5.58875 283.069 5.24305 284.57 5.01259C284.513 5.47352 284.455 5.93444 284.397 6.33776C287.054 6.04968 289.653 5.70399 292.31 5.41591C292.194 5.87683 292.483 6.39537 292.888 6.62584C293.292 6.8563 293.754 6.91391 294.216 7.02915C295.082 7.20199 295.891 7.43246 296.7 7.83577C297.681 8.2967 298.721 9.04571 298.779 10.1404C300.049 10.1404 300.916 11.0623 301.551 12.2722C302.822 14.8073 302.186 18.2066 301.436 20.9722Z" fill="url(#paint9_linear)"/>
<path d="M280.932 95.8152C272.904 95.5272 267.532 94.7205 267.532 94.7205C267.186 94.5477 266.781 94.4325 266.435 94.3172L266.55 93.5106L265.511 93.2802L265.799 92.0702C266.666 92.0702 267.763 92.0126 269.034 91.955C269.092 92.4159 269.149 92.704 269.149 92.7616C269.38 93.1073 275.965 93.5682 277.351 93.6258C278.564 93.6835 294.332 92.5311 300.454 91.955C300.396 92.704 300.281 93.8563 299.992 95.2391C300.05 95.2391 289.018 96.0457 280.932 95.8152Z" fill="#716CB1"/>
<path d="M268.514 84.9258C268.456 84.9258 268.803 89.996 269.034 92.0126C267.763 92.0702 266.666 92.0702 265.799 92.1278C264.413 92.1854 263.547 92.1854 263.431 92.1854C262.565 92.4735 261.756 92.5311 261.005 92.3583C256.905 91.5516 254.768 85.2139 254.594 85.1563C254.363 85.0987 251.071 84.3497 250.494 84.3497C249.916 84.3497 245.758 85.7324 245.758 85.0987C245.758 84.6954 247.606 83.3126 249.281 82.4483C250.205 81.9298 251.071 81.5841 251.476 81.5841C252.111 81.5841 253.786 81.6994 255.23 81.8146C256.5 81.9298 257.598 81.9874 257.598 81.9874L262.738 85.8477L267.532 85.1563L268.514 84.9258Z" fill="#FBC4B2"/>
<path d="M277.697 47.4179C276.196 53.7557 272.904 65.855 270.478 74.6702C268.514 77.1477 265.626 80.4894 264.182 80.7199C263.605 80.8351 261.987 81.008 259.966 81.2385C259.966 81.2385 265.626 77.6663 267.59 73.7484C269.438 69.8305 277.409 48.1093 277.697 47.4179Z" fill="#716CB1"/>
<path d="M265.511 93.3378L266.55 93.5106L266.435 94.3173L245.469 90.3418V89.1894L261.005 92.3583L265.511 93.3378Z" fill="#9FB9C8"/>
<path d="M240.502 61.2457L242.466 72.308L244.372 82.9669L245.469 89.1894H244.487L239.578 61.2457H240.502Z" fill="#9FB9C8"/>
<path d="M239.577 61.2457L244.487 89.1894L216.013 84.2921L215.724 84.2345L210.179 60.2662L239.577 61.2457Z" fill="#D9E9F0"/>
<path d="M245.469 89.1894V90.3417L223.81 86.4239L223.29 86.3086L216.244 85.0411L216.013 84.2921L244.487 89.1894H245.469Z" fill="#82A3B1"/>
<path d="M227.738 73.5179C228.2 74.6702 227.853 75.8801 226.987 76.1682C226.12 76.5139 225.081 75.8225 224.618 74.6702C224.156 73.5179 224.503 72.308 225.369 72.0199C226.236 71.7318 227.276 72.3656 227.738 73.5179Z" fill="white"/>
<path d="M295.082 19.1861C295.429 19.0133 295.949 19.1861 296.122 19.5318C296.18 19.647 296.238 19.7623 296.238 19.9351C296.353 20.6265 296.18 21.2603 295.891 21.894C295.718 22.2974 295.371 22.7007 294.967 22.7007C294.851 22.7007 294.678 22.6431 294.62 22.5278C294.563 22.4702 294.563 22.4126 294.563 22.355C294.563 22.0669 294.62 21.7788 294.794 21.606C294.851 21.4907 294.967 21.4331 295.025 21.3179C295.082 21.2027 295.082 21.0298 295.025 20.9722C294.909 20.7994 294.678 20.857 294.563 20.6841C294.505 20.5689 294.563 20.396 294.563 20.2232C294.563 19.7623 294.678 19.359 295.082 19.1861Z" fill="#F9B099"/>
<path d="M301.956 120.993H78.1458V158.213H301.956V120.993Z" fill="url(#paint10_linear)"/>
<path d="M301.956 120.993H78.1458V134.821H301.956V120.993Z" fill="url(#paint11_linear)"/>
<path d="M307.962 96.0457C314.489 96.0457 319.745 101.289 319.745 107.799V163.226C319.745 164.551 318.647 165.646 317.319 165.646H298.606C297.277 165.646 296.18 164.551 296.18 163.226V107.857C296.18 101.289 301.493 96.0457 307.962 96.0457Z" fill="url(#paint12_linear)"/>
<path d="M307.962 115.059C311.981 115.059 315.24 111.809 315.24 107.799C315.24 103.79 311.981 100.54 307.962 100.54C303.943 100.54 300.685 103.79 300.685 107.799C300.685 111.809 303.943 115.059 307.962 115.059Z" fill="url(#paint13_linear)"/>
<path d="M72.139 96.0457C78.6655 96.0457 83.9215 101.289 83.9215 107.799V163.226C83.9215 164.551 82.8241 165.646 81.4957 165.646H62.7823C61.4538 165.646 60.3564 164.551 60.3564 163.226V107.857C60.3564 101.289 65.6124 96.0457 72.139 96.0457Z" fill="url(#paint14_linear)"/>
<path d="M72.1395 115.059C76.1587 115.059 79.4169 111.809 79.4169 107.799C79.4169 103.79 76.1587 100.54 72.1395 100.54C68.1203 100.54 64.8621 103.79 64.8621 107.799C64.8621 111.809 68.1203 115.059 72.1395 115.059Z" fill="url(#paint15_linear)"/>
<path d="M21.0814 89.8232C23.9116 101.174 29.1675 111.948 35.7518 121.627C45.6861 111.66 47.8231 96.3338 44.5887 83.8311C41.3543 71.098 32.1131 59.0563 18.5401 54.7351C17.4427 66.4311 18.2513 78.4152 21.0814 89.8232Z" fill="url(#paint16_linear)"/>
<path d="M34.0191 133.899C33.1528 133.726 32.6907 132.805 32.864 131.825C37.8889 104.688 32.9217 78.3 18.5979 54.7351C34.0191 78.1271 39.9104 104.688 35.8674 132.344C35.6941 133.381 34.8277 134.072 34.0191 133.899Z" fill="#2E67B2"/>
<path d="M9.70324 103.651C14.3816 111.66 20.7927 118.689 27.9546 124.623C33.2682 114.829 31.4778 102.672 26.2796 93.914C20.9659 84.9835 11.2627 77.8391 0 77.551C1.73272 86.712 4.96714 95.6425 9.70324 103.651Z" fill="url(#paint17_linear)"/>
<path d="M29.3407 134.36C28.6477 134.418 28.0701 133.842 28.0123 133.035C25.7598 111.256 16.1721 92.3007 0 77.4934C16.9229 91.8974 27.3192 110.795 30.3804 132.747C30.4959 133.611 29.9761 134.303 29.3407 134.36Z" fill="#2E67B2"/>
<path d="M53.7722 105.725C50.942 112.754 46.6102 119.207 41.5276 124.796C36.0406 117.536 36.0406 107.511 39.2173 99.7907C42.4517 91.955 49.4403 85.0411 58.4505 83.4854C58.2195 91.0907 56.6023 98.696 53.7722 105.725Z" fill="url(#paint18_linear)"/>
<path d="M41.5857 132.805C42.1632 132.747 42.5676 132.229 42.5098 131.595C41.7012 113.791 47.2459 97.3133 58.5086 83.4854C46.5528 97.0828 40.4305 113.561 40.546 131.652C40.546 132.344 41.0081 132.805 41.5857 132.805Z" fill="#2E67B2"/>
<path d="M327.404 53.3282V27.9196H324.17V53.3282H327.404Z" fill="#FFD057"/>
<path d="M324.714 52.6772H326.793V44.15H324.714V52.6772Z" fill="#FFDF99"/>
<path d="M327.412 30.0016V29.2526H324.177V30.0016H327.412Z" fill="#FFDF99"/>
<path d="M327.382 31.527V30.778H324.147V31.527H327.382Z" fill="#FFDF99"/>
<path d="M325.786 53.329V27.9203H324.169V53.329H325.786Z" fill="#E7E8E8"/>
<path d="M324.167 53.3311V27.9225H320.932V53.3311H324.167Z" fill="#F4817F"/>
<path d="M321.473 52.6772H323.553V44.15H321.473V52.6772Z" fill="#F7A3A7"/>
<path d="M324.174 30.0044V29.2554H320.94V30.0044H324.174Z" fill="#F7A3A7"/>
<path d="M324.144 31.5299V30.7809H320.909V31.5299H324.144Z" fill="#F7A3A7"/>
<path d="M322.549 53.3318V27.9232H320.931V53.3318H322.549Z" fill="#E7E8E8"/>
<path d="M337.072 22.2398H332.451V53.3524H337.072V22.2398Z" fill="#F4817F"/>
<path d="M337.072 22.2398H332.451V53.3524H337.072V22.2398Z" fill="url(#paint19_linear)"/>
<path d="M333.279 43.6207H336.225V31.9247H333.279V43.6207Z" fill="#F7A3A7"/>
<path d="M334.762 49.0312C333.953 49.0312 333.318 48.3974 333.318 47.5908C333.318 46.7842 333.953 46.1504 334.762 46.1504C335.571 46.1504 336.206 46.7842 336.206 47.5908C336.206 48.3398 335.571 49.0312 334.762 49.0312Z" fill="#F7A3A7"/>
<path d="M334.721 53.341V22.2284H332.41V53.341H334.721Z" fill="#E7E8E8"/>
<path d="M343.184 53.3367V32.9983H337.061V53.3367H343.184Z" fill="#5D6AB2"/>
<path d="M343.176 50.7362V50.16H337.054V50.7362H343.176Z" fill="#858AC3"/>
<path d="M338.117 49.1024H342.045V39.8838H338.117V49.1024Z" fill="#858AC3"/>
<path d="M340.134 38.7755C339.036 38.7755 338.112 37.8537 338.112 36.759C338.112 35.6643 339.036 34.7424 340.134 34.7424C341.231 34.7424 342.155 35.6643 342.155 36.759C342.155 37.8537 341.231 38.7755 340.134 38.7755Z" stroke="#858AC3" stroke-miterlimit="10"/>
<path d="M340.093 53.3669V33.0284H337.031V53.3669H340.093Z" fill="#E7E8E8"/>
<path d="M332.452 26.849H327.427V53.3524H332.452V26.849Z" fill="#565490"/>
<path d="M332.452 26.849H327.427V53.3524H332.452V26.849Z" fill="url(#paint20_linear)"/>
<path d="M331.875 34.051H328.005V46.0927H331.875V34.051Z" fill="#5D6AB2"/>
<path d="M332.453 50.4715H327.427V51.1053H332.453V50.4715Z" fill="#5D6AB2"/>
<path d="M332.453 29.096H327.427V29.7298H332.453V29.096Z" fill="#5D6AB2"/>
<path d="M329.912 53.3123V26.809H327.371V53.3123H329.912Z" fill="#E7E8E8"/>
<path d="M358.385 28.5775H357.808V38.257H358.385V28.5775Z" fill="#B0CBD3"/>
<path d="M366.817 45.2861V11.1199C366.817 10.5437 366.355 10.1404 365.835 10.1404C365.258 10.1404 364.853 10.6013 364.853 11.1199V45.2861C364.853 45.8623 365.316 46.2656 365.835 46.2656C366.355 46.2656 366.817 45.8046 366.817 45.2861Z" fill="#CFE3E8"/>
<path d="M374.73 2.30464C374.441 0.921855 373.228 0 371.842 0H359.829C358.442 0 357.229 0.979471 356.941 2.30464L351.511 26.5609H380.159L374.73 2.30464Z" fill="url(#paint21_linear)"/>
<path d="M351.454 26.5609L350.645 30.1331H380.91L380.159 26.5609H351.454Z" fill="url(#paint22_linear)"/>
<path d="M369.821 50.5868C369.821 52.7762 368.031 53.3524 365.836 53.3524C363.641 53.3524 361.85 52.7762 361.85 50.5868C361.85 48.3974 363.641 46.6113 365.836 46.6113C368.031 46.6113 369.821 48.3398 369.821 50.5868Z" fill="#B0CBD3"/>
<path d="M380.91 53.3523H350.645C350.645 51.9119 351.8 50.7596 353.244 50.7596H378.311C379.755 50.702 380.91 51.8543 380.91 53.3523Z" fill="#B0CBD3"/>
<path d="M367.279 42.002C367.279 41.1954 366.586 40.504 365.778 40.504C364.969 40.504 364.276 41.1954 364.276 42.002V52.0272H367.279V42.002Z" fill="#B0CBD3"/>
<path d="M358.097 39.3517C358.543 39.3517 358.905 38.9905 358.905 38.545C358.905 38.0996 358.543 37.7384 358.097 37.7384C357.65 37.7384 357.288 38.0996 357.288 38.545C357.288 38.9905 357.65 39.3517 358.097 39.3517Z" fill="#CFE3E8"/>
<path d="M45.2818 164.205H24.7779C21.0814 164.205 18.0781 161.209 18.0781 157.522V128.772H51.9816V157.522C51.9816 161.209 48.9782 164.205 45.2818 164.205Z" fill="#9FB9C8"/>
<path d="M51.9816 131.825H18.0781V134.821H51.9816V131.825Z" fill="#BFD5DF"/>
<path d="M112.338 174H168.998C171.713 174 173.965 171.753 173.965 169.045V168.699C173.965 165.991 171.713 163.744 168.998 163.744H112.338C109.624 163.744 107.371 165.991 107.371 168.699V169.045C107.371 171.753 109.624 174 112.338 174Z" fill="#D9E9F0"/>
<path d="M123.255 160.057C121.695 160.748 113.089 165.473 111.934 168.066C110.779 170.658 111.241 172.675 113.494 172.905C121.118 173.712 143.181 170.716 144.278 168.238C145.376 165.761 138.676 164.493 127.817 165.646C127.817 165.646 127.124 161.843 123.255 160.057Z" fill="#858AC3"/>
<path d="M128.51 170.14C128.51 170.14 138.444 169.736 141.101 168.181C142.834 167.201 141.91 166.049 139.369 165.415C136.538 165.07 132.553 165.127 127.817 165.646C128.279 167.95 128.51 170.14 128.51 170.14Z" fill="#B5B2D9"/>
<path d="M148.494 160.057C146.935 160.748 138.329 165.473 137.174 168.066C136.019 170.658 136.481 172.675 138.733 172.905C146.357 173.712 168.421 170.716 169.518 168.238C170.615 165.761 163.916 164.493 153.057 165.646C153.057 165.646 152.364 161.843 148.494 160.057Z" fill="#858AC3"/>
<path d="M153.808 170.14C153.808 170.14 163.742 169.736 166.399 168.181C168.132 167.201 167.208 166.049 164.666 165.415C161.836 165.07 157.851 165.127 153.115 165.646C153.577 167.95 153.808 170.14 153.808 170.14Z" fill="#B5B2D9"/>
<defs>
<linearGradient id="paint0_linear" x1="190.069" y1="50.2397" x2="190.069" y2="120.965" gradientUnits="userSpaceOnUse">
<stop stop-color="#F16A7E"/>
<stop offset="1" stop-color="#DD2376"/>
</linearGradient>
<linearGradient id="paint1_linear" x1="109.83" y1="75.7966" x2="109.83" y2="116.588" gradientUnits="userSpaceOnUse">
<stop stop-color="#C8DBE4"/>
<stop offset="1" stop-color="#9FB9C8"/>
</linearGradient>
<linearGradient id="paint2_linear" x1="151.519" y1="90.1136" x2="151.519" y2="116.818" gradientUnits="userSpaceOnUse">
<stop offset="0.0714286" stop-color="#F9FCFD"/>
<stop offset="1" stop-color="#D9E9F0"/>
</linearGradient>
<linearGradient id="paint3_linear" x1="268.582" y1="75.7966" x2="268.582" y2="116.588" gradientUnits="userSpaceOnUse">
<stop stop-color="#C8DBE4"/>
<stop offset="1" stop-color="#9FB9C8"/>
</linearGradient>
<linearGradient id="paint4_linear" x1="226.893" y1="90.1136" x2="226.893" y2="116.818" gradientUnits="userSpaceOnUse">
<stop offset="0.0714286" stop-color="#F9FCFD"/>
<stop offset="1" stop-color="#D9E9F0"/>
</linearGradient>
<linearGradient id="paint5_linear" x1="254.664" y1="95.2376" x2="254.664" y2="147.017" gradientUnits="userSpaceOnUse">
<stop stop-color="#692C8E"/>
<stop offset="0.0671118" stop-color="#602C89"/>
<stop offset="0.2823" stop-color="#4B2C81"/>
<stop offset="0.5052" stop-color="#3B2C7B"/>
<stop offset="0.7387" stop-color="#312C78"/>
<stop offset="1" stop-color="#2E2C77"/>
</linearGradient>
<linearGradient id="paint6_linear" x1="228.638" y1="79.0254" x2="228.638" y2="112.361" gradientUnits="userSpaceOnUse">
<stop stop-color="#692C8E"/>
<stop offset="0.0671118" stop-color="#602C89"/>
<stop offset="0.2823" stop-color="#4B2C81"/>
<stop offset="0.5052" stop-color="#3B2C7B"/>
<stop offset="0.7387" stop-color="#312C78"/>
<stop offset="1" stop-color="#2E2C77"/>
</linearGradient>
<linearGradient id="paint7_linear" x1="277.94" y1="33.7273" x2="277.94" y2="111.025" gradientUnits="userSpaceOnUse">
<stop stop-color="#858AC3"/>
<stop offset="0.3053" stop-color="#8285C1"/>
<stop offset="0.7366" stop-color="#7C79B9"/>
<stop offset="1" stop-color="#7770B4"/>
</linearGradient>
<linearGradient id="paint8_linear" x1="283.799" y1="33.7274" x2="283.799" y2="111.025" gradientUnits="userSpaceOnUse">
<stop stop-color="#858AC3"/>
<stop offset="0.3053" stop-color="#8285C1"/>
<stop offset="0.7366" stop-color="#7C79B9"/>
<stop offset="1" stop-color="#7770B4"/>
</linearGradient>
<linearGradient id="paint9_linear" x1="289.577" y1="-7.27931" x2="289.577" y2="29.8623" gradientUnits="userSpaceOnUse">
<stop stop-color="#5163AD"/>
<stop offset="0.327" stop-color="#4E55A5"/>
<stop offset="1" stop-color="#4F2B83"/>
</linearGradient>
<linearGradient id="paint10_linear" x1="190.068" y1="47.0782" x2="190.068" y2="142.614" gradientUnits="userSpaceOnUse">
<stop stop-color="#F16A7E"/>
<stop offset="1" stop-color="#DD2376"/>
</linearGradient>
<linearGradient id="paint11_linear" x1="190.068" y1="120.965" x2="190.068" y2="134.815" gradientUnits="userSpaceOnUse">
<stop stop-color="#F27789"/>
<stop offset="1" stop-color="#EF4B7D"/>
</linearGradient>
<linearGradient id="paint12_linear" x1="307.984" y1="55.3432" x2="307.984" y2="161.584" gradientUnits="userSpaceOnUse">
<stop stop-color="#F27789"/>
<stop offset="1" stop-color="#EF4B7D"/>
</linearGradient>
<linearGradient id="paint13_linear" x1="307.985" y1="103.151" x2="307.985" y2="116.848" gradientUnits="userSpaceOnUse">
<stop stop-color="#F16A7E"/>
<stop offset="1" stop-color="#DD2376"/>
</linearGradient>
<linearGradient id="paint14_linear" x1="72.152" y1="55.3432" x2="72.152" y2="161.584" gradientUnits="userSpaceOnUse">
<stop stop-color="#F27789"/>
<stop offset="1" stop-color="#EF4B7D"/>
</linearGradient>
<linearGradient id="paint15_linear" x1="72.1525" y1="103.151" x2="72.1525" y2="116.848" gradientUnits="userSpaceOnUse">
<stop stop-color="#F16A7E"/>
<stop offset="1" stop-color="#DD2376"/>
</linearGradient>
<linearGradient id="paint16_linear" x1="18.0767" y1="88.1869" x2="45.9975" y2="88.1869" gradientUnits="userSpaceOnUse">
<stop stop-color="#57A7DC"/>
<stop offset="0.2426" stop-color="#56A3DA"/>
<stop offset="0.5279" stop-color="#529AD4"/>
<stop offset="0.8336" stop-color="#4E8BC9"/>
<stop offset="1" stop-color="#4B81C3"/>
</linearGradient>
<linearGradient id="paint17_linear" x1="-0.0043318" y1="101.084" x2="31.1602" y2="101.084" gradientUnits="userSpaceOnUse">
<stop stop-color="#57A7DC"/>
<stop offset="0.2426" stop-color="#56A3DA"/>
<stop offset="0.5279" stop-color="#529AD4"/>
<stop offset="0.8336" stop-color="#4E8BC9"/>
<stop offset="1" stop-color="#4B81C3"/>
</linearGradient>
<linearGradient id="paint18_linear" x1="37.0963" y1="104.133" x2="58.4947" y2="104.133" gradientUnits="userSpaceOnUse">
<stop stop-color="#57A7DC"/>
<stop offset="0.2426" stop-color="#56A3DA"/>
<stop offset="0.5279" stop-color="#529AD4"/>
<stop offset="0.8336" stop-color="#4E8BC9"/>
<stop offset="1" stop-color="#4B81C3"/>
</linearGradient>
<linearGradient id="paint19_linear" x1="334.742" y1="22.2121" x2="334.742" y2="53.3279" gradientUnits="userSpaceOnUse">
<stop stop-color="#EBE5D9"/>
<stop offset="0.5968" stop-color="#F9F8F7"/>
<stop offset="1" stop-color="#DCD2BD"/>
</linearGradient>
<linearGradient id="paint20_linear" x1="329.921" y1="26.8347" x2="329.921" y2="53.3279" gradientUnits="userSpaceOnUse">
<stop stop-color="#EBE5D9"/>
<stop offset="0.5968" stop-color="#F9F8F7"/>
<stop offset="1" stop-color="#DCD2BD"/>
</linearGradient>
<linearGradient id="paint21_linear" x1="355.85" y1="1.76253" x2="372.616" y2="30.8728" gradientUnits="userSpaceOnUse">
<stop stop-color="#FBD15C"/>
<stop offset="1" stop-color="#F79262"/>
</linearGradient>
<linearGradient id="paint22_linear" x1="361.307" y1="21.2729" x2="370.201" y2="36.7161" gradientUnits="userSpaceOnUse">
<stop stop-color="#FBD15C"/>
<stop offset="1" stop-color="#F79262"/>
</linearGradient>
</defs>
</svg>
